<svg width="134" height="124" viewBox="0 0 134 124" fill="none" xmlns="http://www.w3.org/2000/svg">
<g style="mix-blend-mode:multiply">
<path fill-rule="evenodd" clip-rule="evenodd" d="M84.0595 70.332C76.9014 70.332 71.0986 76.1348 71.0986 83.2929V110.323C71.0986 117.482 76.9014 123.284 84.0595 123.284H111.09C111.239 123.284 111.387 123.282 111.535 123.277L111.526 123.284H131.677C132.896 123.284 133.524 121.827 132.686 120.941L124.677 112.475L123.716 113.265C123.935 112.32 124.051 111.335 124.051 110.323V83.2929C124.051 76.1348 118.248 70.332 111.09 70.332H84.0595Z" fill="#FF9995"/>
</g>
<g style="mix-blend-mode:multiply">
<path fill-rule="evenodd" clip-rule="evenodd" d="M48.0914 12.8027C55.2495 12.8027 61.0522 18.6055 61.0522 25.7636V52.7942C61.0522 59.9523 55.2495 65.7551 48.0914 65.7551H21.6252L21.6252 65.7551H1.47366C0.255013 65.7551 -0.37262 64.2975 0.464825 63.4121L8.30811 55.1204C8.17134 54.3658 8.09992 53.5883 8.09992 52.7942V25.7636C8.09992 18.6055 13.9027 12.8027 21.0608 12.8027H48.0914Z" fill="#819DFF"/>
</g>
<g clip-path="url(#clip0_176_20279)">
<rect x="42.2451" y="3.03906" width="53.2618" height="99.8659" rx="7.26568" fill="#BFBFBF"/>
<rect x="39.6157" y="3.03906" width="59.2312" height="99.6435" fill="#1C0D32"/>
<rect x="46.4507" y="16.5859" width="46.1189" height="28.6445" rx="4.64453" fill="#3F2687"/>
<path d="M51.8267 21.3111C51.7996 21.3111 51.7861 21.2975 51.7861 21.2704V20.8153C51.7861 20.8098 51.7834 20.8058 51.778 20.8031C51.7753 20.8004 51.7712 20.8004 51.7658 20.8031L51.3512 21.0428C51.3458 21.0456 51.3391 21.0469 51.3309 21.0469C51.3147 21.0469 51.3025 21.0401 51.2943 21.0266L51.2171 20.8884C51.2144 20.883 51.2131 20.8762 51.2131 20.8681C51.2131 20.8518 51.2198 20.8396 51.2334 20.8315L51.652 20.6039C51.6574 20.6012 51.6601 20.5972 51.6601 20.5917C51.6601 20.5863 51.6574 20.5823 51.652 20.5796L51.2334 20.352C51.2226 20.3466 51.2158 20.3384 51.2131 20.3276C51.2104 20.3167 51.2117 20.3059 51.2171 20.2951L51.2943 20.1569C51.2998 20.1461 51.3079 20.1393 51.3187 20.1366C51.3296 20.1339 51.3404 20.1352 51.3512 20.1406L51.7658 20.3764C51.7712 20.3791 51.7753 20.3791 51.778 20.3764C51.7834 20.3736 51.7861 20.3696 51.7861 20.3642V19.9131C51.7861 19.886 51.7996 19.8724 51.8267 19.8724H51.9812C52.0083 19.8724 52.0218 19.886 52.0218 19.9131V20.3642C52.0218 20.3696 52.0232 20.3736 52.0259 20.3764C52.0313 20.3791 52.0367 20.3791 52.0421 20.3764L52.4566 20.1406C52.4621 20.1379 52.4688 20.1366 52.477 20.1366C52.4932 20.1366 52.5054 20.1434 52.5135 20.1569L52.5867 20.2951C52.5894 20.3005 52.5908 20.3073 52.5908 20.3154C52.5908 20.3317 52.584 20.3438 52.5704 20.352L52.1518 20.5796C52.1464 20.5823 52.1437 20.5863 52.1437 20.5917C52.1437 20.5972 52.1464 20.6012 52.1518 20.6039L52.5704 20.8315C52.5813 20.8369 52.588 20.8451 52.5908 20.8559C52.5935 20.8667 52.5921 20.8776 52.5867 20.8884L52.5135 21.0266C52.5081 21.0374 52.5 21.0442 52.4892 21.0469C52.4783 21.0496 52.4675 21.0483 52.4566 21.0428L52.0421 20.8031C52.0367 20.8004 52.0313 20.8004 52.0259 20.8031C52.0232 20.8058 52.0218 20.8098 52.0218 20.8153V21.2704C52.0218 21.2975 52.0083 21.3111 51.9812 21.3111H51.8267ZM54.9374 20.3601C54.9374 20.3872 54.9239 20.4007 54.8968 20.4007H53.4541C53.4433 20.4007 53.4378 20.4062 53.4378 20.417V21.2907C53.4378 21.3016 53.4433 21.307 53.4541 21.307H54.4457C54.4728 21.307 54.4863 21.3205 54.4863 21.3476V21.6037C54.4863 21.6308 54.4728 21.6443 54.4457 21.6443H53.4541C53.4433 21.6443 53.4378 21.6497 53.4378 21.6606V22.5546C53.4378 22.5655 53.4433 22.5709 53.4541 22.5709H54.8968C54.9239 22.5709 54.9374 22.5844 54.9374 22.6115V22.8676C54.9374 22.8947 54.9239 22.9082 54.8968 22.9082H53.0883C53.0612 22.9082 53.0477 22.8947 53.0477 22.8676V20.1041C53.0477 20.077 53.0612 20.0634 53.0883 20.0634H54.8968C54.9239 20.0634 54.9374 20.077 54.9374 20.1041V20.3601ZM55.4684 22.9082C55.4413 22.9082 55.4278 22.8947 55.4278 22.8676V20.1041C55.4278 20.077 55.4413 20.0634 55.4684 20.0634H55.7773C55.8044 20.0634 55.8179 20.077 55.8179 20.1041V22.8676C55.8179 22.8947 55.8044 22.9082 55.7773 22.9082H55.4684ZM58.0586 21.6159C58.0694 21.7269 58.0735 21.8516 58.0708 21.9897C58.0708 22.0168 58.0572 22.0304 58.0301 22.0304H56.7337C56.7229 22.0304 56.7175 22.0358 56.7175 22.0466C56.7175 22.1388 56.7256 22.2092 56.7419 22.258C56.7717 22.3663 56.8313 22.4517 56.9207 22.514C57.0128 22.5736 57.1279 22.6034 57.2661 22.6034C57.4666 22.6034 57.621 22.5208 57.7294 22.3555C57.743 22.3284 57.7606 22.3243 57.7822 22.3433L58.0139 22.4977C58.0329 22.514 58.0369 22.5316 58.0261 22.5506C57.9502 22.6725 57.8418 22.7687 57.701 22.8391C57.5628 22.9096 57.4057 22.9448 57.2295 22.9448C57.0318 22.9448 56.8651 22.9014 56.7297 22.8147C56.5942 22.728 56.4926 22.6048 56.4249 22.4449C56.3599 22.2851 56.3273 22.0913 56.3273 21.8638C56.3273 21.666 56.3422 21.5156 56.372 21.4127C56.4208 21.2257 56.5184 21.0781 56.6647 20.9697C56.811 20.8613 56.9884 20.8071 57.197 20.8071C57.4707 20.8071 57.6752 20.8762 57.8107 21.0144C57.9462 21.1499 58.0288 21.3504 58.0586 21.6159ZM57.197 21.1444C57.0805 21.1444 56.9844 21.1742 56.9085 21.2339C56.8326 21.2907 56.7812 21.368 56.7541 21.4655C56.7351 21.5251 56.7229 21.601 56.7175 21.6931C56.7175 21.7039 56.7229 21.7093 56.7337 21.7093H57.6644C57.6752 21.7093 57.6806 21.7039 57.6806 21.6931C57.6752 21.6037 57.6671 21.5373 57.6563 21.4939C57.6292 21.3883 57.575 21.3043 57.4937 21.242C57.4151 21.177 57.3162 21.1444 57.197 21.1444ZM59.3921 22.9407C59.1862 22.9407 59.0101 22.8892 58.8638 22.7863C58.7175 22.6806 58.6173 22.5384 58.5631 22.3596C58.5224 22.2349 58.5021 22.071 58.5021 21.8678C58.5021 21.6809 58.5224 21.517 58.5631 21.3761C58.6173 21.2027 58.7175 21.0645 58.8638 20.9616C59.0128 20.8586 59.1889 20.8071 59.3921 20.8071C59.5953 20.8071 59.7728 20.8586 59.9245 20.9616C60.0762 21.0645 60.1751 21.1946 60.2212 21.3517C60.2374 21.3951 60.2483 21.4398 60.2537 21.4858C60.2537 21.5075 60.2415 21.521 60.2171 21.5265L59.9123 21.5712H59.9042C59.8852 21.5712 59.8717 21.559 59.8635 21.5346L59.8513 21.4696C59.8297 21.3774 59.7768 21.3002 59.6928 21.2379C59.6089 21.1756 59.5073 21.1444 59.388 21.1444C59.2715 21.1444 59.1727 21.1756 59.0914 21.2379C59.0101 21.3002 58.9573 21.3829 58.9329 21.4858C58.9085 21.5834 58.8963 21.712 58.8963 21.8719C58.8963 22.029 58.9085 22.1564 58.9329 22.2539C58.96 22.3623 59.0128 22.4476 59.0914 22.5099C59.1727 22.5722 59.2715 22.6034 59.388 22.6034C59.5073 22.6034 59.6089 22.5722 59.6928 22.5099C59.7795 22.4476 59.8337 22.3663 59.8554 22.2661C59.8581 22.2634 59.8581 22.2607 59.8554 22.258C59.8554 22.2526 59.8568 22.2485 59.8595 22.2458V22.2295C59.8676 22.2078 59.8825 22.1997 59.9042 22.2051L60.209 22.2539C60.2306 22.2593 60.2415 22.2702 60.2415 22.2864V22.3027C60.2415 22.3271 60.2347 22.3569 60.2212 22.3921C60.1751 22.5573 60.0762 22.6901 59.9245 22.7903C59.7728 22.8906 59.5953 22.9407 59.3921 22.9407ZM61.7223 21.1201C61.7223 21.1472 61.7087 21.1607 61.6816 21.1607H61.2427C61.2319 21.1607 61.2265 21.1661 61.2265 21.177V22.2539C61.2265 22.3677 61.2522 22.4503 61.3037 22.5018C61.3551 22.5506 61.4351 22.575 61.5434 22.575H61.6613C61.6884 22.575 61.7019 22.5885 61.7019 22.6156V22.8676C61.7019 22.8947 61.6884 22.9082 61.6613 22.9082C61.5746 22.9136 61.5123 22.9163 61.4744 22.9163C61.2684 22.9163 61.1127 22.8798 61.007 22.8066C60.904 22.7307 60.8526 22.5926 60.8526 22.3921V21.177C60.8526 21.1661 60.8472 21.1607 60.8363 21.1607H60.5884C60.5613 21.1607 60.5478 21.1472 60.5478 21.1201V20.8803C60.5478 20.8532 60.5613 20.8396 60.5884 20.8396H60.8363C60.8472 20.8396 60.8526 20.8342 60.8526 20.8234V20.3438C60.8526 20.3167 60.8661 20.3032 60.8932 20.3032H61.1858C61.2129 20.3032 61.2265 20.3167 61.2265 20.3438V20.8234C61.2265 20.8342 61.2319 20.8396 61.2427 20.8396H61.6816C61.7087 20.8396 61.7223 20.8532 61.7223 20.8803V21.1201ZM62.4381 20.5145C62.3622 20.5145 62.2999 20.4901 62.2511 20.4414C62.2024 20.3926 62.178 20.3303 62.178 20.2544C62.178 20.1786 62.2024 20.1163 62.2511 20.0675C62.2999 20.0187 62.3622 19.9943 62.4381 19.9943C62.5139 19.9943 62.5763 20.0187 62.625 20.0675C62.6738 20.1163 62.6982 20.1786 62.6982 20.2544C62.6982 20.3303 62.6738 20.3926 62.625 20.4414C62.5763 20.4901 62.5139 20.5145 62.4381 20.5145ZM62.2755 22.9041C62.2484 22.9041 62.2349 22.8906 62.2349 22.8635V20.8803C62.2349 20.8532 62.2484 20.8396 62.2755 20.8396H62.5844C62.6115 20.8396 62.625 20.8532 62.625 20.8803V22.8635C62.625 22.8906 62.6115 22.9041 62.5844 22.9041H62.2755ZM64.0835 22.9407C63.883 22.9407 63.7083 22.8906 63.5593 22.7903C63.4103 22.6874 63.3059 22.5452 63.2463 22.3636C63.1976 22.2173 63.1732 22.0521 63.1732 21.8678C63.1732 21.6755 63.1962 21.5129 63.2423 21.3802C63.3019 21.2013 63.4062 21.0618 63.5552 20.9616C63.7042 20.8586 63.8817 20.8071 64.0876 20.8071C64.2826 20.8071 64.452 20.8586 64.5956 20.9616C64.7419 21.0618 64.8462 21.2 64.9085 21.3761C64.9573 21.5143 64.9817 21.6768 64.9817 21.8638C64.9817 22.0534 64.9573 22.22 64.9085 22.3636C64.8489 22.5452 64.7459 22.6874 64.5996 22.7903C64.4533 22.8906 64.2813 22.9407 64.0835 22.9407ZM64.0835 22.6034C64.1919 22.6034 64.2867 22.5736 64.368 22.514C64.4493 22.4517 64.5075 22.365 64.5427 22.2539C64.5725 22.151 64.5874 22.0236 64.5874 21.8719C64.5874 21.7202 64.5739 21.5942 64.5468 21.4939C64.5116 21.3829 64.4533 21.2975 64.3721 21.2379C64.2908 21.1756 64.1919 21.1444 64.0754 21.1444C63.9643 21.1444 63.8681 21.1756 63.7868 21.2379C63.7056 21.2975 63.6473 21.3829 63.6121 21.4939C63.5823 21.5888 63.5674 21.7148 63.5674 21.8719C63.5674 22.029 63.5823 22.1564 63.6121 22.2539C63.6446 22.365 63.7015 22.4517 63.7828 22.514C63.8668 22.5736 63.967 22.6034 64.0835 22.6034ZM66.415 20.8112C66.6371 20.8112 66.8132 20.8762 66.9433 21.0063C67.0733 21.1336 67.1383 21.307 67.1383 21.5265V22.8676C67.1383 22.8947 67.1248 22.9082 67.0977 22.9082L66.7888 22.9082C66.7618 22.9082 66.7482 22.8947 66.7482 22.8676V21.6037C66.7482 21.4682 66.7089 21.3585 66.6304 21.2745C66.5518 21.1905 66.4475 21.1485 66.3174 21.1485C66.1901 21.1485 66.0858 21.1905 66.0045 21.2745C65.9232 21.3585 65.8826 21.4669 65.8826 21.5996V22.8676C65.8826 22.8947 65.869 22.9082 65.8419 22.9082H65.5331C65.506 22.9082 65.4924 22.8947 65.4924 22.8676V20.8803C65.4924 20.8532 65.506 20.8396 65.5331 20.8396H65.8419C65.869 20.8396 65.8826 20.8532 65.8826 20.8803V21.0266C65.8826 21.032 65.8839 21.0361 65.8866 21.0388C65.8921 21.0415 65.8961 21.0401 65.8988 21.0347C66.0153 20.8857 66.1874 20.8112 66.415 20.8112ZM70.2846 22.9082C70.2602 22.9082 70.244 22.8974 70.2358 22.8757L70.0895 22.4002C70.0868 22.3921 70.0814 22.388 70.0733 22.388H68.9313C68.9232 22.388 68.9178 22.3921 68.9151 22.4002L68.7688 22.8757C68.7606 22.8974 68.7444 22.9082 68.72 22.9082H68.3908C68.361 22.9082 68.3502 22.8933 68.3583 22.8635L69.2483 20.0959C69.2564 20.0743 69.2727 20.0634 69.2971 20.0634H69.7035C69.7279 20.0634 69.7441 20.0743 69.7522 20.0959L70.6504 22.8635L70.6544 22.8798C70.6544 22.8987 70.6422 22.9082 70.6179 22.9082H70.2846ZM69.0167 22.0588C69.0139 22.0643 69.0139 22.0697 69.0167 22.0751C69.0221 22.0778 69.0275 22.0792 69.0329 22.0792H69.9676C69.973 22.0792 69.9771 22.0778 69.9798 22.0751C69.9852 22.0697 69.9866 22.0643 69.9839 22.0588L69.5125 20.5511C69.5098 20.5457 69.5057 20.543 69.5003 20.543C69.4949 20.543 69.4908 20.5457 69.4881 20.5511L69.0167 22.0588ZM71.1091 22.9082C71.082 22.9082 71.0685 22.8947 71.0685 22.8676V20.1041C71.0685 20.077 71.082 20.0634 71.1091 20.0634H71.418C71.4451 20.0634 71.4586 20.077 71.4586 20.1041V22.8676C71.4586 22.8947 71.4451 22.9082 71.418 22.9082H71.1091ZM73.6993 21.6159C73.7101 21.7269 73.7142 21.8516 73.7115 21.9897C73.7115 22.0168 73.6979 22.0304 73.6708 22.0304H72.3744C72.3636 22.0304 72.3582 22.0358 72.3582 22.0466C72.3582 22.1388 72.3663 22.2092 72.3826 22.258C72.4124 22.3663 72.472 22.4517 72.5614 22.514C72.6535 22.5736 72.7686 22.6034 72.9068 22.6034C73.1073 22.6034 73.2617 22.5208 73.3701 22.3555C73.3837 22.3284 73.4013 22.3243 73.4229 22.3433L73.6546 22.4977C73.6736 22.514 73.6776 22.5316 73.6668 22.5506C73.5909 22.6725 73.4826 22.7687 73.3417 22.8391C73.2035 22.9096 73.0464 22.9448 72.8702 22.9448C72.6725 22.9448 72.5058 22.9014 72.3704 22.8147C72.2349 22.728 72.1333 22.6048 72.0656 22.4449C72.0006 22.2851 71.968 22.0913 71.968 21.8638C71.968 21.666 71.983 21.5156 72.0128 21.4127C72.0615 21.2257 72.1591 21.0781 72.3054 20.9697C72.4517 20.8613 72.6291 20.8071 72.8377 20.8071C73.1114 20.8071 73.3159 20.8762 73.4514 21.0144C73.5869 21.1499 73.6695 21.3504 73.6993 21.6159ZM72.8377 21.1444C72.7212 21.1444 72.6251 21.1742 72.5492 21.2339C72.4733 21.2907 72.4219 21.368 72.3948 21.4655C72.3758 21.5251 72.3636 21.601 72.3582 21.6931C72.3582 21.7039 72.3636 21.7093 72.3744 21.7093H73.3051C73.3159 21.7093 73.3213 21.7039 73.3213 21.6931C73.3159 21.6037 73.3078 21.5373 73.297 21.4939C73.2699 21.3883 73.2157 21.3043 73.1344 21.242C73.0558 21.177 72.9569 21.1444 72.8377 21.1444ZM75.11 20.8193C75.1967 20.8193 75.2753 20.8369 75.3457 20.8722C75.3647 20.8803 75.3715 20.8965 75.3661 20.9209L75.301 21.2257C75.2983 21.2501 75.2821 21.2582 75.2523 21.2501C75.2062 21.2311 75.152 21.2217 75.0897 21.2217L75.0328 21.2257C74.9055 21.2311 74.7998 21.2758 74.7158 21.3598C74.6345 21.4411 74.5939 21.5481 74.5939 21.6809V22.8676C74.5939 22.8947 74.5804 22.9082 74.5533 22.9082H74.2444C74.2173 22.9082 74.2038 22.8947 74.2038 22.8676V20.8803C74.2038 20.8532 74.2173 20.8396 74.2444 20.8396H74.5533C74.5804 20.8396 74.5939 20.8532 74.5939 20.8803V21.0957C74.5939 21.1038 74.5953 21.1092 74.598 21.1119C74.6034 21.1119 74.6075 21.1092 74.6102 21.1038C74.7321 20.9142 74.8987 20.8193 75.11 20.8193ZM76.7756 21.1201C76.7756 21.1472 76.762 21.1607 76.735 21.1607H76.296C76.2852 21.1607 76.2798 21.1661 76.2798 21.177V22.2539C76.2798 22.3677 76.3055 22.4503 76.357 22.5018C76.4085 22.5506 76.4884 22.575 76.5968 22.575H76.7146C76.7417 22.575 76.7553 22.5885 76.7553 22.6156V22.8676C76.7553 22.8947 76.7417 22.9082 76.7146 22.9082C76.6279 22.9136 76.5656 22.9163 76.5277 22.9163C76.3218 22.9163 76.166 22.8798 76.0603 22.8066C75.9574 22.7307 75.9059 22.5926 75.9059 22.3921V21.177C75.9059 21.1661 75.9005 21.1607 75.8896 21.1607H75.6417C75.6147 21.1607 75.6011 21.1472 75.6011 21.1201V20.8803C75.6011 20.8532 75.6147 20.8396 75.6417 20.8396H75.8896C75.9005 20.8396 75.9059 20.8342 75.9059 20.8234V20.3438C75.9059 20.3167 75.9194 20.3032 75.9465 20.3032H76.2391C76.2662 20.3032 76.2798 20.3167 76.2798 20.3438V20.8234C76.2798 20.8342 76.2852 20.8396 76.296 20.8396H76.735C76.762 20.8396 76.7756 20.8532 76.7756 20.8803V21.1201ZM77.7027 21.3111C77.6757 21.3111 77.6621 21.2975 77.6621 21.2704V20.8153C77.6621 20.8098 77.6594 20.8058 77.654 20.8031C77.6513 20.8004 77.6472 20.8004 77.6418 20.8031L77.2273 21.0428C77.2218 21.0456 77.2151 21.0469 77.2069 21.0469C77.1907 21.0469 77.1785 21.0401 77.1704 21.0266L77.0932 20.8884C77.0904 20.883 77.0891 20.8762 77.0891 20.8681C77.0891 20.8518 77.0959 20.8396 77.1094 20.8315L77.528 20.6039C77.5334 20.6012 77.5361 20.5972 77.5361 20.5917C77.5361 20.5863 77.5334 20.5823 77.528 20.5796L77.1094 20.352C77.0986 20.3466 77.0918 20.3384 77.0891 20.3276C77.0864 20.3167 77.0877 20.3059 77.0932 20.2951L77.1704 20.1569C77.1758 20.1461 77.1839 20.1393 77.1947 20.1366C77.2056 20.1339 77.2164 20.1352 77.2273 20.1406L77.6418 20.3764C77.6472 20.3791 77.6513 20.3791 77.654 20.3764C77.6594 20.3736 77.6621 20.3696 77.6621 20.3642V19.9131C77.6621 19.886 77.6757 19.8724 77.7027 19.8724H77.8572C77.8843 19.8724 77.8978 19.886 77.8978 19.9131V20.3642C77.8978 20.3696 77.8992 20.3736 77.9019 20.3764C77.9073 20.3791 77.9127 20.3791 77.9181 20.3764L78.3327 20.1406C78.3381 20.1379 78.3449 20.1366 78.353 20.1366C78.3692 20.1366 78.3814 20.1434 78.3896 20.1569L78.4627 20.2951C78.4654 20.3005 78.4668 20.3073 78.4668 20.3154C78.4668 20.3317 78.46 20.3438 78.4465 20.352L78.0279 20.5796C78.0224 20.5823 78.0197 20.5863 78.0197 20.5917C78.0197 20.5972 78.0224 20.6012 78.0279 20.6039L78.4465 20.8315C78.4573 20.8369 78.4641 20.8451 78.4668 20.8559C78.4695 20.8667 78.4681 20.8776 78.4627 20.8884L78.3896 21.0266C78.3841 21.0374 78.376 21.0442 78.3652 21.0469C78.3543 21.0496 78.3435 21.0483 78.3327 21.0428L77.9181 20.8031C77.9127 20.8004 77.9073 20.8004 77.9019 20.8031C77.8992 20.8058 77.8978 20.8098 77.8978 20.8153V21.2704C77.8978 21.2975 77.8843 21.3111 77.8572 21.3111H77.7027ZM53.2369 24.0634C53.264 24.0634 53.2776 24.077 53.2776 24.1041V24.3642C53.2776 24.3913 53.264 24.4048 53.2369 24.4048H52.4566C52.4458 24.4048 52.4404 24.4102 52.4404 24.4211V26.8676C52.4404 26.8947 52.4268 26.9082 52.3997 26.9082H52.0909C52.0638 26.9082 52.0502 26.8947 52.0502 26.8676V24.4211C52.0502 24.4102 52.0448 24.4048 52.034 24.4048H51.2903C51.2632 24.4048 51.2496 24.3913 51.2496 24.3642V24.1041C51.2496 24.077 51.2632 24.0634 51.2903 24.0634H53.2369ZM54.253 26.9407C54.0525 26.9407 53.8778 26.8906 53.7288 26.7903C53.5797 26.6874 53.4754 26.5452 53.4158 26.3636C53.3671 26.2173 53.3427 26.0521 53.3427 25.8678C53.3427 25.6755 53.3657 25.5129 53.4118 25.3802C53.4714 25.2013 53.5757 25.0618 53.7247 24.9616C53.8737 24.8586 54.0512 24.8071 54.2571 24.8071C54.4521 24.8071 54.6215 24.8586 54.7651 24.9616C54.9114 25.0618 55.0157 25.2 55.078 25.3761C55.1268 25.5143 55.1511 25.6768 55.1511 25.8638C55.1511 26.0534 55.1268 26.22 55.078 26.3636C55.0184 26.5452 54.9154 26.6874 54.7691 26.7903C54.6228 26.8906 54.4508 26.9407 54.253 26.9407ZM54.253 26.6034C54.3614 26.6034 54.4562 26.5736 54.5375 26.514C54.6188 26.4517 54.677 26.365 54.7122 26.2539C54.742 26.151 54.7569 26.0236 54.7569 25.8719C54.7569 25.7202 54.7434 25.5942 54.7163 25.4939C54.6811 25.3829 54.6228 25.2975 54.5416 25.2379C54.4603 25.1756 54.3614 25.1444 54.2449 25.1444C54.1338 25.1444 54.0376 25.1756 53.9563 25.2379C53.8751 25.2975 53.8168 25.3829 53.7816 25.4939C53.7518 25.5888 53.7369 25.7148 53.7369 25.8719C53.7369 26.029 53.7518 26.1564 53.7816 26.2539C53.8141 26.365 53.871 26.4517 53.9523 26.514C54.0363 26.5736 54.1365 26.6034 54.253 26.6034ZM56.9461 24.1041C56.9461 24.077 56.9597 24.0634 56.9868 24.0634H57.2956C57.3227 24.0634 57.3363 24.077 57.3363 24.1041V26.8676C57.3363 26.8947 57.3227 26.9082 57.2956 26.9082H56.9868C56.9597 26.9082 56.9461 26.8947 56.9461 26.8676V26.7335C56.9461 26.728 56.9434 26.724 56.938 26.7213C56.9353 26.7186 56.9312 26.7199 56.9258 26.7253C56.8662 26.7931 56.7958 26.8459 56.7145 26.8838C56.6332 26.9217 56.5452 26.9407 56.4503 26.9407C56.2553 26.9407 56.0927 26.8933 55.9627 26.7985C55.8353 26.7009 55.7419 26.5641 55.6823 26.388C55.6308 26.2444 55.605 26.071 55.605 25.8678C55.605 25.6782 55.6267 25.5143 55.6701 25.3761C55.727 25.1973 55.8204 25.0577 55.9505 24.9575C56.0805 24.8573 56.2471 24.8071 56.4503 24.8071C56.5425 24.8071 56.6292 24.8261 56.7104 24.864C56.7944 24.8993 56.8662 24.9507 56.9258 25.0185C56.9312 25.0239 56.9353 25.0252 56.938 25.0225C56.9434 25.0198 56.9461 25.0158 56.9461 25.0103V24.1041ZM56.8445 26.384C56.9069 26.2702 56.938 26.0995 56.938 25.8719C56.938 25.6443 56.9042 25.4709 56.8364 25.3517C56.7579 25.2135 56.6427 25.1444 56.491 25.1444C56.3284 25.1444 56.2079 25.2095 56.1293 25.3395C56.0426 25.475 55.9992 25.6538 55.9992 25.876C55.9992 26.0846 56.0331 26.2526 56.1008 26.3799C56.1794 26.5289 56.3081 26.6034 56.4869 26.6034C56.6441 26.6034 56.7633 26.5303 56.8445 26.384ZM58.6641 24.8071C58.8294 24.8071 58.973 24.8369 59.0949 24.8965C59.2195 24.9534 59.3144 25.0347 59.3794 25.1404C59.4471 25.2433 59.481 25.3612 59.481 25.4939V26.8676C59.481 26.8947 59.4674 26.9082 59.4403 26.9082H59.1315C59.1044 26.9082 59.0908 26.8947 59.0908 26.8676V26.7213C59.0908 26.7077 59.0841 26.705 59.0705 26.7131C59.0001 26.7863 58.9134 26.8432 58.8104 26.8838C58.7102 26.9217 58.5977 26.9407 58.4731 26.9407C58.2726 26.9407 58.106 26.8906 57.9733 26.7903C57.8432 26.6874 57.7782 26.533 57.7782 26.3271C57.7782 26.1157 57.8513 25.9505 57.9976 25.8313C58.1466 25.7093 58.3539 25.6484 58.6194 25.6484H59.0746C59.0854 25.6484 59.0908 25.643 59.0908 25.6321V25.5224C59.0908 25.4032 59.0556 25.3111 58.9852 25.246C58.9174 25.1783 58.8131 25.1444 58.6723 25.1444C58.5585 25.1444 58.465 25.1675 58.3918 25.2135C58.3214 25.2569 58.278 25.3165 58.2618 25.3923C58.2537 25.4194 58.2374 25.4316 58.213 25.4289L57.8838 25.3842C57.8568 25.3788 57.8446 25.368 57.8473 25.3517C57.8689 25.1919 57.9543 25.0618 58.1033 24.9616C58.2523 24.8586 58.4393 24.8071 58.6641 24.8071ZM58.5585 26.6115C58.7021 26.6115 58.8267 26.5736 58.9323 26.4977C59.038 26.4219 59.0908 26.3257 59.0908 26.2092V25.9694C59.0908 25.9586 59.0854 25.9532 59.0746 25.9532H58.6926C58.5327 25.9532 58.4054 25.9843 58.3106 26.0466C58.2157 26.109 58.1683 26.1957 58.1683 26.3067C58.1683 26.407 58.2035 26.4828 58.274 26.5343C58.3471 26.5858 58.442 26.6115 58.5585 26.6115ZM59.911 27.7169C59.892 27.7169 59.8826 27.7034 59.8826 27.6763V27.4365C59.8826 27.4094 59.8961 27.3959 59.9232 27.3959H59.9313C60.0397 27.3932 60.125 27.3796 60.1873 27.3552C60.2497 27.3309 60.3011 27.2848 60.3418 27.2171C60.3824 27.152 60.4217 27.0532 60.4596 26.9204C60.4623 26.9177 60.4623 26.9136 60.4596 26.9082C60.4596 26.9001 60.4596 26.896 60.4596 26.896L59.781 24.8843L59.7769 24.8681C59.7769 24.8491 59.7891 24.8396 59.8135 24.8396H60.1426C60.167 24.8396 60.1833 24.8505 60.1914 24.8722L60.6506 26.4043C60.6533 26.4097 60.6574 26.4124 60.6628 26.4124C60.6683 26.4124 60.6723 26.4097 60.675 26.4043L61.1302 24.8722C61.1383 24.8505 61.1546 24.8396 61.179 24.8396H61.5C61.5298 24.8396 61.5406 24.8545 61.5325 24.8843L60.7929 27.0504C60.7306 27.2374 60.6683 27.3756 60.6059 27.465C60.5436 27.5571 60.4623 27.6221 60.3621 27.66C60.2619 27.698 60.121 27.7169 59.9394 27.7169H59.911ZM62.954 24.5145C62.8782 24.5145 62.8158 24.4901 62.7671 24.4414C62.7183 24.3926 62.6939 24.3303 62.6939 24.2544C62.6939 24.1786 62.7183 24.1163 62.7671 24.0675C62.8158 24.0187 62.8782 23.9943 62.954 23.9943C63.0299 23.9943 63.0922 24.0187 63.141 24.0675C63.1897 24.1163 63.2141 24.1786 63.2141 24.2544C63.2141 24.3303 63.1897 24.3926 63.141 24.4414C63.0922 24.4901 63.0299 24.5145 62.954 24.5145ZM62.7915 26.9041C62.7644 26.9041 62.7508 26.8906 62.7508 26.8635L62.7508 24.8803C62.7508 24.8532 62.7644 24.8396 62.7915 24.8396H63.1003C63.1274 24.8396 63.141 24.8532 63.141 24.8803V26.8635C63.141 26.8906 63.1274 26.9041 63.1003 26.9041H62.7915ZM64.4816 26.9326C64.319 26.9326 64.1754 26.9082 64.0508 26.8594C63.9289 26.8107 63.8341 26.7443 63.7663 26.6603C63.6986 26.5736 63.6647 26.4788 63.6647 26.3758V26.3311C63.6647 26.304 63.6783 26.2905 63.7054 26.2905H63.998C64.0251 26.2905 64.0386 26.304 64.0386 26.3311V26.3514C64.0386 26.4273 64.0793 26.4937 64.1605 26.5506C64.2445 26.6075 64.3502 26.6359 64.4775 26.6359C64.5994 26.6359 64.6983 26.6102 64.7742 26.5587C64.8501 26.5045 64.888 26.4368 64.888 26.3555C64.888 26.2769 64.8528 26.2187 64.7823 26.1808C64.7119 26.1401 64.5981 26.0981 64.441 26.0548C64.2865 26.0114 64.1565 25.9681 64.0508 25.9247C63.9479 25.8787 63.8598 25.815 63.7867 25.7337C63.7162 25.6497 63.681 25.5427 63.681 25.4127C63.681 25.2311 63.7514 25.0875 63.8923 24.9819C64.0359 24.8735 64.2256 24.8193 64.4613 24.8193C64.6184 24.8193 64.7566 24.8451 64.8758 24.8965C64.9977 24.9453 65.0912 25.0144 65.1562 25.1038C65.2212 25.1932 65.2537 25.2935 65.2537 25.4045V25.4167C65.2537 25.4438 65.2402 25.4574 65.2131 25.4574H64.9286C64.9015 25.4574 64.888 25.4438 64.888 25.4167V25.4045C64.888 25.326 64.8487 25.2609 64.7701 25.2095C64.6943 25.1553 64.59 25.1282 64.4572 25.1282C64.338 25.1282 64.2405 25.1512 64.1646 25.1973C64.0915 25.2433 64.0549 25.3056 64.0549 25.3842C64.0549 25.4628 64.0901 25.5224 64.1605 25.563C64.2337 25.6037 64.3502 25.647 64.51 25.6931C64.6672 25.7364 64.7972 25.7798 64.9002 25.8231C65.0058 25.8638 65.0953 25.9261 65.1684 26.0101C65.2416 26.0913 65.2781 26.1984 65.2781 26.3311C65.2781 26.5154 65.205 26.6617 65.0587 26.77C64.9151 26.8784 64.7227 26.9326 64.4816 26.9326ZM68.4866 24.3601C68.4866 24.3872 68.4731 24.4007 68.446 24.4007H67.0033C66.9924 24.4007 66.987 24.4062 66.987 24.417V25.2907C66.987 25.3016 66.9924 25.307 67.0033 25.307H67.9949C68.022 25.307 68.0355 25.3205 68.0355 25.3476V25.6037C68.0355 25.6308 68.022 25.6443 67.9949 25.6443H67.0033C66.9924 25.6443 66.987 25.6497 66.987 25.6606V26.5546C66.987 26.5655 66.9924 26.5709 67.0033 26.5709H68.446C68.4731 26.5709 68.4866 26.5844 68.4866 26.6115V26.8676C68.4866 26.8947 68.4731 26.9082 68.446 26.9082H66.6375C66.6104 26.9082 66.5969 26.8947 66.5969 26.8676L66.5969 24.1041C66.5969 24.077 66.6104 24.0634 66.6375 24.0634L68.446 24.0634C68.4731 24.0634 68.4866 24.077 68.4866 24.1041V24.3601ZM69.0176 26.9082C68.9905 26.9082 68.977 26.8947 68.977 26.8676V24.1041C68.977 24.077 68.9905 24.0634 69.0176 24.0634H69.3265C69.3536 24.0634 69.3671 24.077 69.3671 24.1041V26.8676C69.3671 26.8947 69.3536 26.9082 69.3265 26.9082H69.0176ZM71.6078 25.6159C71.6186 25.7269 71.6227 25.8516 71.62 25.9897C71.62 26.0168 71.6064 26.0304 71.5793 26.0304H70.2829C70.2721 26.0304 70.2667 26.0358 70.2667 26.0466C70.2667 26.1388 70.2748 26.2092 70.2911 26.258C70.3209 26.3663 70.3805 26.4517 70.4699 26.514C70.562 26.5736 70.6771 26.6034 70.8153 26.6034C71.0158 26.6034 71.1702 26.5208 71.2786 26.3555C71.2922 26.3284 71.3098 26.3243 71.3314 26.3433L71.5631 26.4977C71.582 26.514 71.5861 26.5316 71.5753 26.5506C71.4994 26.6725 71.391 26.7687 71.2502 26.8391C71.112 26.9096 70.9548 26.9448 70.7787 26.9448C70.581 26.9448 70.4143 26.9014 70.2789 26.8147C70.1434 26.728 70.0418 26.6048 69.9741 26.4449C69.909 26.2851 69.8765 26.0913 69.8765 25.8638C69.8765 25.666 69.8914 25.5156 69.9212 25.4127C69.97 25.2257 70.0675 25.0781 70.2138 24.9697C70.3601 24.8613 70.5376 24.8071 70.7462 24.8071C71.0199 24.8071 71.2244 24.8762 71.3599 25.0144C71.4953 25.1499 71.578 25.3504 71.6078 25.6159ZM70.7462 25.1444C70.6297 25.1444 70.5335 25.1742 70.4577 25.2339C70.3818 25.2907 70.3303 25.368 70.3033 25.4655C70.2843 25.5251 70.2721 25.601 70.2667 25.6931C70.2667 25.7039 70.2721 25.7093 70.2829 25.7093H71.2136C71.2244 25.7093 71.2298 25.7039 71.2298 25.6931C71.2244 25.6037 71.2163 25.5373 71.2055 25.4939C71.1784 25.3883 71.1242 25.3043 71.0429 25.242C70.9643 25.177 70.8654 25.1444 70.7462 25.1444ZM72.9413 26.9407C72.7354 26.9407 72.5593 26.8892 72.413 26.7863C72.2667 26.6806 72.1664 26.5384 72.1123 26.3596C72.0716 26.2349 72.0513 26.071 72.0513 25.8678C72.0513 25.6809 72.0716 25.517 72.1123 25.3761C72.1664 25.2027 72.2667 25.0645 72.413 24.9616C72.562 24.8586 72.7381 24.8071 72.9413 24.8071C73.1445 24.8071 73.322 24.8586 73.4737 24.9616C73.6254 25.0645 73.7243 25.1946 73.7704 25.3517C73.7866 25.3951 73.7974 25.4398 73.8029 25.4858C73.8029 25.5075 73.7907 25.521 73.7663 25.5265L73.4615 25.5712H73.4534C73.4344 25.5712 73.4209 25.559 73.4127 25.5346L73.4005 25.4696C73.3789 25.3774 73.326 25.3002 73.242 25.2379C73.158 25.1756 73.0564 25.1444 72.9372 25.1444C72.8207 25.1444 72.7218 25.1756 72.6406 25.2379C72.5593 25.3002 72.5065 25.3829 72.4821 25.4858C72.4577 25.5834 72.4455 25.712 72.4455 25.8719C72.4455 26.029 72.4577 26.1564 72.4821 26.2539C72.5092 26.3623 72.562 26.4476 72.6406 26.5099C72.7218 26.5722 72.8207 26.6034 72.9372 26.6034C73.0564 26.6034 73.158 26.5722 73.242 26.5099C73.3287 26.4476 73.3829 26.3663 73.4046 26.2661C73.4073 26.2634 73.4073 26.2607 73.4046 26.258C73.4046 26.2526 73.406 26.2485 73.4087 26.2458V26.2295C73.4168 26.2078 73.4317 26.1997 73.4534 26.2051L73.7582 26.2539C73.7798 26.2593 73.7907 26.2702 73.7907 26.2864V26.3027C73.7907 26.3271 73.7839 26.3569 73.7704 26.3921C73.7243 26.5573 73.6254 26.6901 73.4737 26.7903C73.322 26.8906 73.1445 26.9407 72.9413 26.9407ZM75.2714 25.1201C75.2714 25.1472 75.2579 25.1607 75.2308 25.1607H74.7919C74.7811 25.1607 74.7756 25.1661 74.7756 25.177V26.2539C74.7756 26.3677 74.8014 26.4503 74.8529 26.5018C74.9043 26.5506 74.9843 26.575 75.0926 26.575H75.2105C75.2376 26.575 75.2511 26.5885 75.2511 26.6156V26.8676C75.2511 26.8947 75.2376 26.9082 75.2105 26.9082C75.1238 26.9136 75.0615 26.9163 75.0235 26.9163C74.8176 26.9163 74.6619 26.8798 74.5562 26.8066C74.4532 26.7307 74.4018 26.5926 74.4018 26.3921V25.177C74.4018 25.1661 74.3963 25.1607 74.3855 25.1607H74.1376C74.1105 25.1607 74.097 25.1472 74.097 25.1201V24.8803C74.097 24.8532 74.1105 24.8396 74.1376 24.8396H74.3855C74.3963 24.8396 74.4018 24.8342 74.4018 24.8234V24.3438C74.4018 24.3167 74.4153 24.3032 74.4424 24.3032H74.735C74.7621 24.3032 74.7756 24.3167 74.7756 24.3438V24.8234C74.7756 24.8342 74.7811 24.8396 74.7919 24.8396H75.2308C75.2579 24.8396 75.2714 24.8532 75.2714 24.8803V25.1201ZM75.9873 24.5145C75.9114 24.5145 75.8491 24.4901 75.8003 24.4414C75.7516 24.3926 75.7272 24.3303 75.7272 24.2544C75.7272 24.1786 75.7516 24.1163 75.8003 24.0675C75.8491 24.0187 75.9114 23.9943 75.9873 23.9943C76.0631 23.9943 76.1255 24.0187 76.1742 24.0675C76.223 24.1163 76.2474 24.1786 76.2474 24.2544C76.2474 24.3303 76.223 24.3926 76.1742 24.4414C76.1255 24.4901 76.0631 24.5145 75.9873 24.5145ZM75.8247 26.9041C75.7976 26.9041 75.7841 26.8906 75.7841 26.8635V24.8803C75.7841 24.8532 75.7976 24.8396 75.8247 24.8396H76.1336C76.1607 24.8396 76.1742 24.8532 76.1742 24.8803V26.8635C76.1742 26.8906 76.1607 26.9041 76.1336 26.9041H75.8247ZM77.6327 26.9407C77.4322 26.9407 77.2575 26.8906 77.1085 26.7903C76.9594 26.6874 76.8551 26.5452 76.7955 26.3636C76.7468 26.2173 76.7224 26.0521 76.7224 25.8678C76.7224 25.6755 76.7454 25.5129 76.7915 25.3802C76.8511 25.2013 76.9554 25.0618 77.1044 24.9616C77.2534 24.8586 77.4309 24.8071 77.6368 24.8071C77.8318 24.8071 78.0012 24.8586 78.1448 24.9616C78.2911 25.0618 78.3954 25.2 78.4577 25.3761C78.5065 25.5143 78.5308 25.6768 78.5308 25.8638C78.5308 26.0534 78.5065 26.22 78.4577 26.3636C78.3981 26.5452 78.2951 26.6874 78.1488 26.7903C78.0025 26.8906 77.8305 26.9407 77.6327 26.9407ZM77.6327 26.6034C77.7411 26.6034 77.8359 26.5736 77.9172 26.514C77.9985 26.4517 78.0567 26.365 78.0919 26.2539C78.1217 26.151 78.1366 26.0236 78.1366 25.8719C78.1366 25.7202 78.1231 25.5942 78.096 25.4939C78.0608 25.3829 78.0025 25.2975 77.9212 25.2379C77.84 25.1756 77.7411 25.1444 77.6246 25.1444C77.5135 25.1444 77.4173 25.1756 77.336 25.2379C77.2548 25.2975 77.1965 25.3829 77.1613 25.4939C77.1315 25.5888 77.1166 25.7148 77.1166 25.8719C77.1166 26.029 77.1315 26.1564 77.1613 26.2539C77.1938 26.365 77.2507 26.4517 77.332 26.514C77.416 26.5736 77.5162 26.6034 77.6327 26.6034ZM79.9641 24.8112C80.1863 24.8112 80.3624 24.8762 80.4925 25.0063C80.6225 25.1336 80.6875 25.307 80.6875 25.5265V26.8676C80.6875 26.8947 80.674 26.9082 80.6469 26.9082H80.338C80.3109 26.9082 80.2974 26.8947 80.2974 26.8676V25.6037C80.2974 25.4682 80.2581 25.3585 80.1795 25.2745C80.101 25.1905 79.9967 25.1485 79.8666 25.1485C79.7393 25.1485 79.635 25.1905 79.5537 25.2745C79.4724 25.3585 79.4318 25.4669 79.4318 25.5996V26.8676C79.4318 26.8947 79.4182 26.9082 79.3911 26.9082H79.0823C79.0552 26.9082 79.0416 26.8947 79.0416 26.8676V24.8803C79.0416 24.8532 79.0552 24.8396 79.0823 24.8396H79.3911C79.4182 24.8396 79.4318 24.8532 79.4318 24.8803V25.0266C79.4318 25.032 79.4331 25.0361 79.4358 25.0388C79.4413 25.0415 79.4453 25.0401 79.448 25.0347C79.5645 24.8857 79.7366 24.8112 79.9641 24.8112ZM51.4691 30.9082C51.442 30.9082 51.4285 30.8947 51.4285 30.8676V28.1041C51.4285 28.077 51.442 28.0634 51.4691 28.0634H52.4526C52.7343 28.0634 52.9592 28.1379 53.1272 28.2869C53.2952 28.4332 53.3792 28.6297 53.3792 28.8762V30.0954C53.3792 30.342 53.2952 30.5397 53.1272 30.6887C52.9592 30.8351 52.7343 30.9082 52.4526 30.9082H51.4691ZM51.8186 30.5546C51.8186 30.5655 51.824 30.5709 51.8349 30.5709H52.4688C52.626 30.5709 52.7506 30.5235 52.8427 30.4287C52.9375 30.3311 52.9863 30.2011 52.989 30.0385V28.9331C52.989 28.7706 52.9416 28.6419 52.8468 28.547C52.7547 28.4495 52.6287 28.4007 52.4688 28.4007H51.8349C51.824 28.4007 51.8186 28.4062 51.8186 28.417V30.5546ZM54.6279 28.8071C54.7932 28.8071 54.9368 28.8369 55.0587 28.8965C55.1834 28.9534 55.2782 29.0347 55.3432 29.1404C55.4109 29.2433 55.4448 29.3612 55.4448 29.4939V30.8676C55.4448 30.8947 55.4313 30.9082 55.4042 30.9082H55.0953C55.0682 30.9082 55.0547 30.8947 55.0547 30.8676V30.7213C55.0547 30.7077 55.0479 30.705 55.0343 30.7131C54.9639 30.7863 54.8772 30.8432 54.7742 30.8838C54.674 30.9217 54.5616 30.9407 54.4369 30.9407C54.2364 30.9407 54.0698 30.8906 53.9371 30.7903C53.807 30.6874 53.742 30.533 53.742 30.3271C53.742 30.1157 53.8151 29.9505 53.9615 29.8313C54.1105 29.7093 54.3177 29.6484 54.5832 29.6484H55.0384C55.0492 29.6484 55.0547 29.643 55.0547 29.6321V29.5224C55.0547 29.4032 55.0194 29.3111 54.949 29.246C54.8813 29.1783 54.777 29.1444 54.6361 29.1444C54.5223 29.1444 54.4288 29.1675 54.3557 29.2135C54.2852 29.2569 54.2419 29.3165 54.2256 29.3923C54.2175 29.4194 54.2012 29.4316 54.1768 29.4289L53.8477 29.3842C53.8206 29.3788 53.8084 29.368 53.8111 29.3517C53.8328 29.1919 53.9181 29.0618 54.0671 28.9616C54.2161 28.8586 54.4031 28.8071 54.6279 28.8071ZM54.5223 30.6115C54.6659 30.6115 54.7905 30.5736 54.8962 30.4977C55.0018 30.4219 55.0547 30.3257 55.0547 30.2092V29.9694C55.0547 29.9586 55.0492 29.9532 55.0384 29.9532H54.6564C54.4965 29.9532 54.3692 29.9843 54.2744 30.0466C54.1796 30.109 54.1321 30.1957 54.1321 30.3067C54.1321 30.407 54.1674 30.4828 54.2378 30.5343C54.311 30.5858 54.4058 30.6115 54.5223 30.6115ZM55.8748 31.7169C55.8559 31.7169 55.8464 31.7034 55.8464 31.6763V31.4365C55.8464 31.4094 55.8599 31.3959 55.887 31.3959H55.8951C56.0035 31.3932 56.0889 31.3796 56.1512 31.3552C56.2135 31.3309 56.265 31.2848 56.3056 31.2171C56.3462 31.152 56.3855 31.0532 56.4235 30.9204C56.4262 30.9177 56.4262 30.9136 56.4235 30.9082C56.4235 30.9001 56.4235 30.896 56.4235 30.896L55.7448 28.8843L55.7407 28.8681C55.7407 28.8491 55.7529 28.8396 55.7773 28.8396H56.1065C56.1308 28.8396 56.1471 28.8505 56.1552 28.8722L56.6145 30.4043C56.6172 30.4097 56.6212 30.4124 56.6266 30.4124C56.6321 30.4124 56.6361 30.4097 56.6388 30.4043L57.094 28.8722C57.1021 28.8505 57.1184 28.8396 57.1428 28.8396H57.4638C57.4936 28.8396 57.5045 28.8545 57.4963 28.8843L56.7567 31.0504C56.6944 31.2374 56.6321 31.3756 56.5698 31.465C56.5074 31.5571 56.4262 31.6221 56.3259 31.66C56.2257 31.698 56.0848 31.7169 55.9033 31.7169H55.8748ZM58.1368 29.9654C58.1097 29.9654 58.0961 29.9518 58.0961 29.9247L58.0595 28.1041C58.0595 28.077 58.0731 28.0634 58.1002 28.0634H58.409C58.4361 28.0634 58.4497 28.077 58.4497 28.1041L58.4172 29.9247C58.4172 29.9518 58.4036 29.9654 58.3765 29.9654H58.1368ZM58.2384 30.896C58.1625 30.896 58.1002 30.8716 58.0514 30.8229C58.0027 30.7741 57.9783 30.7118 57.9783 30.6359C57.9783 30.5601 58.0027 30.4977 58.0514 30.449C58.1002 30.4002 58.1625 30.3758 58.2384 30.3758C58.3142 30.3758 58.3765 30.4002 58.4253 30.449C58.4741 30.4977 58.4985 30.5601 58.4985 30.6359C58.4985 30.7118 58.4741 30.7741 58.4253 30.8229C58.3765 30.8716 58.3142 30.896 58.2384 30.896ZM61.9501 28.3601C61.9501 28.3872 61.9365 28.4007 61.9094 28.4007H60.4708C60.4599 28.4007 60.4545 28.4062 60.4545 28.417V29.2907C60.4545 29.3016 60.4599 29.307 60.4708 29.307H61.4583C61.4854 29.307 61.499 29.3205 61.499 29.3476V29.6037C61.499 29.6308 61.4854 29.6443 61.4583 29.6443H60.4708C60.4599 29.6443 60.4545 29.6497 60.4545 29.6606V30.8676C60.4545 30.8947 60.441 30.9082 60.4139 30.9082H60.105C60.0779 30.9082 60.0644 30.8947 60.0644 30.8676V28.1041C60.0644 28.077 60.0779 28.0634 60.105 28.0634H61.9094C61.9365 28.0634 61.9501 28.077 61.9501 28.1041V28.3601ZM62.5492 28.5145C62.4733 28.5145 62.411 28.4901 62.3623 28.4414C62.3135 28.3926 62.2891 28.3303 62.2891 28.2544C62.2891 28.1786 62.3135 28.1163 62.3623 28.0675C62.411 28.0187 62.4733 27.9943 62.5492 27.9943C62.6251 27.9943 62.6874 28.0187 62.7362 28.0675C62.7849 28.1163 62.8093 28.1786 62.8093 28.2544C62.8093 28.3303 62.7849 28.3926 62.7362 28.4414C62.6874 28.4901 62.6251 28.5145 62.5492 28.5145ZM62.3867 30.9041C62.3596 30.9041 62.346 30.8906 62.346 30.8635V28.8803C62.346 28.8532 62.3596 28.8396 62.3867 28.8396H62.6955C62.7226 28.8396 62.7362 28.8532 62.7362 28.8803V30.8635C62.7362 30.8906 62.7226 30.9041 62.6955 30.9041H62.3867ZM64.2719 28.8112C64.494 28.8112 64.6701 28.8762 64.8002 29.0063C64.9302 29.1336 64.9952 29.307 64.9952 29.5265V30.8676C64.9952 30.8947 64.9817 30.9082 64.9546 30.9082H64.6457C64.6186 30.9082 64.6051 30.8947 64.6051 30.8676V29.6037C64.6051 29.4682 64.5658 29.3585 64.4872 29.2745C64.4087 29.1905 64.3044 29.1485 64.1743 29.1485C64.047 29.1485 63.9427 29.1905 63.8614 29.2745C63.7801 29.3585 63.7395 29.4669 63.7395 29.5996V30.8676C63.7395 30.8947 63.7259 30.9082 63.6988 30.9082H63.39C63.3629 30.9082 63.3493 30.8947 63.3493 30.8676V28.8803C63.3493 28.8532 63.3629 28.8396 63.39 28.8396H63.6988C63.7259 28.8396 63.7395 28.8532 63.7395 28.8803V29.0266C63.7395 29.032 63.7408 29.0361 63.7435 29.0388C63.749 29.0415 63.753 29.0401 63.7557 29.0347C63.8722 28.8857 64.0443 28.8112 64.2719 28.8112ZM66.8124 28.1041C66.8124 28.077 66.8259 28.0634 66.853 28.0634H67.1619C67.189 28.0634 67.2025 28.077 67.2025 28.1041V30.8676C67.2025 30.8947 67.189 30.9082 67.1619 30.9082H66.853C66.8259 30.9082 66.8124 30.8947 66.8124 30.8676V30.7335C66.8124 30.728 66.8097 30.724 66.8042 30.7213C66.8015 30.7186 66.7975 30.7199 66.7921 30.7253C66.7324 30.7931 66.662 30.8459 66.5807 30.8838C66.4994 30.9217 66.4114 30.9407 66.3166 30.9407C66.1215 30.9407 65.9589 30.8933 65.8289 30.7985C65.7016 30.7009 65.6081 30.5641 65.5485 30.388C65.497 30.2444 65.4713 30.071 65.4713 29.8678C65.4713 29.6782 65.4929 29.5143 65.5363 29.3761C65.5932 29.1973 65.6867 29.0577 65.8167 28.9575C65.9467 28.8573 66.1134 28.8071 66.3166 28.8071C66.4087 28.8071 66.4954 28.8261 66.5767 28.864C66.6606 28.8993 66.7324 28.9507 66.7921 29.0185C66.7975 29.0239 66.8015 29.0252 66.8042 29.0225C66.8097 29.0198 66.8124 29.0158 66.8124 29.0103V28.1041ZM66.7108 30.384C66.7731 30.2702 66.8042 30.0995 66.8042 29.8719C66.8042 29.6443 66.7704 29.4709 66.7026 29.3517C66.6241 29.2135 66.5089 29.1444 66.3572 29.1444C66.1946 29.1444 66.0741 29.2095 65.9955 29.3395C65.9088 29.475 65.8655 29.6538 65.8655 29.876C65.8655 30.0846 65.8993 30.2526 65.9671 30.3799C66.0456 30.5289 66.1743 30.6034 66.3531 30.6034C66.5103 30.6034 66.6295 30.5303 66.7108 30.384ZM70.2624 29.6159C70.2732 29.7269 70.2773 29.8516 70.2746 29.9897C70.2746 30.0168 70.261 30.0304 70.2339 30.0304L68.9375 30.0304C68.9267 30.0304 68.9213 30.0358 68.9213 30.0466C68.9213 30.1388 68.9294 30.2092 68.9457 30.258C68.9755 30.3663 69.0351 30.4517 69.1245 30.514C69.2166 30.5736 69.3317 30.6034 69.4699 30.6034C69.6704 30.6034 69.8248 30.5208 69.9332 30.3555C69.9468 30.3284 69.9644 30.3243 69.986 30.3433L70.2177 30.4977C70.2367 30.514 70.2407 30.5316 70.2299 30.5506C70.154 30.6725 70.0456 30.7687 69.9048 30.8391C69.7666 30.9096 69.6094 30.9448 69.4333 30.9448C69.2356 30.9448 69.0689 30.9014 68.9335 30.8147C68.798 30.728 68.6964 30.6048 68.6287 30.4449C68.5637 30.2851 68.5311 30.0913 68.5311 29.8638C68.5311 29.666 68.546 29.5156 68.5758 29.4127C68.6246 29.2257 68.7221 29.0781 68.8685 28.9697C69.0148 28.8613 69.1922 28.8071 69.4008 28.8071C69.6745 28.8071 69.879 28.8762 70.0145 29.0144C70.15 29.1499 70.2326 29.3504 70.2624 29.6159ZM69.4008 29.1444C69.2843 29.1444 69.1881 29.1742 69.1123 29.2339C69.0364 29.2907 68.985 29.368 68.9579 29.4655C68.9389 29.5251 68.9267 29.601 68.9213 29.6931C68.9213 29.7039 68.9267 29.7093 68.9375 29.7093H69.8682C69.879 29.7093 69.8844 29.7039 69.8844 29.6931C69.879 29.6037 69.8709 29.5373 69.8601 29.4939C69.833 29.3883 69.7788 29.3043 69.6975 29.242C69.6189 29.177 69.52 29.1444 69.4008 29.1444ZM71.24 30.9082C71.2156 30.9082 71.1994 30.8974 71.1912 30.8757L70.5288 28.8843L70.5247 28.8681C70.5247 28.8491 70.5369 28.8396 70.5613 28.8396H70.9027C70.9271 28.8396 70.9433 28.8505 70.9515 28.8722L71.3985 30.3433C71.4012 30.3487 71.4053 30.3514 71.4107 30.3514C71.4161 30.3514 71.4202 30.3487 71.4229 30.3433L71.8658 28.8722C71.874 28.8505 71.8902 28.8396 71.9146 28.8396L72.256 28.8437C72.2858 28.8437 72.2966 28.8586 72.2885 28.8884L71.6301 30.8757C71.622 30.8974 71.6058 30.9082 71.5814 30.9082H71.24ZM74.2748 29.6159C74.2856 29.7269 74.2897 29.8516 74.287 29.9897C74.287 30.0168 74.2734 30.0304 74.2463 30.0304H72.9499C72.9391 30.0304 72.9337 30.0358 72.9337 30.0466C72.9337 30.1388 72.9418 30.2092 72.958 30.258C72.9878 30.3663 73.0474 30.4517 73.1369 30.514C73.229 30.5736 73.3441 30.6034 73.4823 30.6034C73.6828 30.6034 73.8372 30.5208 73.9456 30.3555C73.9591 30.3284 73.9767 30.3243 73.9984 30.3433L74.2301 30.4977C74.249 30.514 74.2531 30.5316 74.2422 30.5506C74.1664 30.6725 74.058 30.7687 73.9171 30.8391C73.779 30.9096 73.6218 30.9448 73.4457 30.9448C73.2479 30.9448 73.0813 30.9014 72.9458 30.8147C72.8104 30.728 72.7088 30.6048 72.641 30.4449C72.576 30.2851 72.5435 30.0913 72.5435 29.8638C72.5435 29.666 72.5584 29.5156 72.5882 29.4127C72.637 29.2257 72.7345 29.0781 72.8808 28.9697C73.0271 28.8613 73.2046 28.8071 73.4132 28.8071C73.6868 28.8071 73.8914 28.8762 74.0269 29.0144C74.1623 29.1499 74.245 29.3504 74.2748 29.6159ZM73.4132 29.1444C73.2967 29.1444 73.2005 29.1742 73.1247 29.2339C73.0488 29.2907 72.9973 29.368 72.9702 29.4655C72.9513 29.5251 72.9391 29.601 72.9337 29.6931C72.9337 29.7039 72.9391 29.7093 72.9499 29.7093H73.8806C73.8914 29.7093 73.8968 29.7039 73.8968 29.6931C73.8914 29.6037 73.8833 29.5373 73.8724 29.4939C73.8453 29.3883 73.7911 29.3043 73.7099 29.242C73.6313 29.177 73.5324 29.1444 73.4132 29.1444ZM75.6855 28.8193C75.7722 28.8193 75.8508 28.8369 75.9212 28.8722C75.9402 28.8803 75.9469 28.8965 75.9415 28.9209L75.8765 29.2257C75.8738 29.2501 75.8575 29.2582 75.8277 29.2501C75.7817 29.2311 75.7275 29.2217 75.6652 29.2217L75.6083 29.2257C75.4809 29.2311 75.3753 29.2758 75.2913 29.3598C75.21 29.4411 75.1694 29.5481 75.1694 29.6809V30.8676C75.1694 30.8947 75.1558 30.9082 75.1287 30.9082H74.8199C74.7928 30.9082 74.7792 30.8947 74.7792 30.8676V28.8803C74.7792 28.8532 74.7928 28.8396 74.8199 28.8396H75.1287C75.1558 28.8396 75.1694 28.8532 75.1694 28.8803V29.0957C75.1694 29.1038 75.1707 29.1092 75.1734 29.1119C75.1789 29.1119 75.1829 29.1092 75.1856 29.1038C75.3075 28.9142 75.4742 28.8193 75.6855 28.8193ZM76.3177 31.7169C76.2987 31.7169 76.2892 31.7034 76.2892 31.6763V31.4365C76.2892 31.4094 76.3028 31.3959 76.3299 31.3959H76.338C76.4464 31.3932 76.5317 31.3796 76.594 31.3552C76.6563 31.3309 76.7078 31.2848 76.7484 31.2171C76.7891 31.152 76.8284 31.0532 76.8663 30.9204C76.869 30.9177 76.869 30.9136 76.8663 30.9082C76.8663 30.9001 76.8663 30.896 76.8663 30.896L76.1876 28.8843L76.1836 28.8681C76.1836 28.8491 76.1957 28.8396 76.2201 28.8396H76.5493C76.5737 28.8396 76.59 28.8505 76.5981 28.8722L77.0573 30.4043C77.06 30.4097 77.0641 30.4124 77.0695 30.4124C77.0749 30.4124 77.079 30.4097 77.0817 30.4043L77.5369 28.8722C77.545 28.8505 77.5612 28.8396 77.5856 28.8396H77.9067C77.9365 28.8396 77.9473 28.8545 77.9392 28.8843L77.1995 31.0504C77.1372 31.2374 77.0749 31.3756 77.0126 31.465C76.9503 31.5571 76.869 31.6221 76.7688 31.66C76.6685 31.698 76.5276 31.7169 76.3461 31.7169H76.3177ZM79.3314 29.1201C79.3314 29.1472 79.3179 29.1607 79.2908 29.1607H78.8519C78.8411 29.1607 78.8356 29.1661 78.8356 29.177V30.2539C78.8356 30.3677 78.8614 30.4503 78.9129 30.5018C78.9643 30.5506 79.0443 30.575 79.1526 30.575H79.2705C79.2976 30.575 79.3111 30.5885 79.3111 30.6156V30.8676C79.3111 30.8947 79.2976 30.9082 79.2705 30.9082C79.1838 30.9136 79.1215 30.9163 79.0835 30.9163C78.8776 30.9163 78.7218 30.8798 78.6162 30.8066C78.5132 30.7307 78.4618 30.5926 78.4618 30.3921V29.177C78.4618 29.1661 78.4563 29.1607 78.4455 29.1607H78.1976C78.1705 29.1607 78.157 29.1472 78.157 29.1201V28.8803C78.157 28.8532 78.1705 28.8396 78.1976 28.8396H78.4455C78.4563 28.8396 78.4618 28.8342 78.4618 28.8234V28.3438C78.4618 28.3167 78.4753 28.3032 78.5024 28.3032H78.795C78.8221 28.3032 78.8356 28.3167 78.8356 28.3438V28.8234C78.8356 28.8342 78.8411 28.8396 78.8519 28.8396H79.2908C79.3179 28.8396 79.3314 28.8532 79.3314 28.8803V29.1201ZM80.7341 28.8112C80.9562 28.8112 81.1323 28.8762 81.2624 29.0063C81.3924 29.1336 81.4575 29.307 81.4575 29.5265V30.8676C81.4575 30.8947 81.4439 30.9082 81.4168 30.9082H81.108C81.0809 30.9082 81.0673 30.8947 81.0673 30.8676V29.6037C81.0673 29.4682 81.028 29.3585 80.9495 29.2745C80.8709 29.1905 80.7666 29.1485 80.6365 29.1485C80.5092 29.1485 80.4049 29.1905 80.3236 29.2745C80.2423 29.3585 80.2017 29.4669 80.2017 29.5996V30.8676C80.2017 30.8947 80.1882 30.9082 80.1611 30.9082H79.8522C79.8251 30.9082 79.8116 30.8947 79.8116 30.8676V28.1041C79.8116 28.077 79.8251 28.0634 79.8522 28.0634H80.1611C80.1882 28.0634 80.2017 28.077 80.2017 28.1041V29.0266C80.2017 29.032 80.2031 29.0361 80.2058 29.0388C80.2112 29.0415 80.2152 29.0401 80.218 29.0347C80.3345 28.8857 80.5065 28.8112 80.7341 28.8112ZM82.2499 28.5145C82.174 28.5145 82.1117 28.4901 82.063 28.4414C82.0142 28.3926 81.9898 28.3303 81.9898 28.2544C81.9898 28.1786 82.0142 28.1163 82.063 28.0675C82.1117 28.0187 82.174 27.9943 82.2499 27.9943C82.3258 27.9943 82.3881 28.0187 82.4369 28.0675C82.4856 28.1163 82.51 28.1786 82.51 28.2544C82.51 28.3303 82.4856 28.3926 82.4369 28.4414C82.3881 28.4901 82.3258 28.5145 82.2499 28.5145ZM82.0873 30.9041C82.0603 30.9041 82.0467 30.8906 82.0467 30.8635V28.8803C82.0467 28.8532 82.0603 28.8396 82.0873 28.8396H82.3962C82.4233 28.8396 82.4369 28.8532 82.4369 28.8803V30.8635C82.4369 30.8906 82.4233 30.9041 82.3962 30.9041H82.0873ZM83.9726 28.8112C84.1947 28.8112 84.3708 28.8762 84.5009 29.0063C84.6309 29.1336 84.6959 29.307 84.6959 29.5265V30.8676C84.6959 30.8947 84.6824 30.9082 84.6553 30.9082H84.3464C84.3193 30.9082 84.3058 30.8947 84.3058 30.8676V29.6037C84.3058 29.4682 84.2665 29.3585 84.1879 29.2745C84.1094 29.1905 84.0051 29.1485 83.875 29.1485C83.7477 29.1485 83.6434 29.1905 83.5621 29.2745C83.4808 29.3585 83.4402 29.4669 83.4402 29.5996V30.8676C83.4402 30.8947 83.4266 30.9082 83.3995 30.9082H83.0907C83.0636 30.9082 83.05 30.8947 83.05 30.8676V28.8803C83.05 28.8532 83.0636 28.8396 83.0907 28.8396H83.3995C83.4266 28.8396 83.4402 28.8532 83.4402 28.8803V29.0266C83.4402 29.032 83.4415 29.0361 83.4442 29.0388C83.4497 29.0415 83.4537 29.0401 83.4564 29.0347C83.5729 28.8857 83.745 28.8112 83.9726 28.8112ZM86.5247 28.8803C86.5247 28.8532 86.5382 28.8396 86.5653 28.8396H86.8742C86.9013 28.8396 86.9148 28.8532 86.9148 28.8803V30.8025C86.9148 31.1304 86.8214 31.3647 86.6344 31.5056C86.4502 31.6465 86.2023 31.7169 85.8907 31.7169C85.8474 31.7169 85.7796 31.7142 85.6875 31.7088C85.6604 31.7061 85.6469 31.6912 85.6469 31.6641L85.6591 31.3837C85.6591 31.3728 85.6631 31.3634 85.6713 31.3552C85.6794 31.3471 85.6902 31.3444 85.7038 31.3471C85.7417 31.3498 85.7972 31.3512 85.8704 31.3512C86.1007 31.3512 86.2673 31.3078 86.3703 31.2211C86.4732 31.1371 86.5247 30.9935 86.5247 30.7903V30.7172C86.5247 30.7118 86.522 30.7077 86.5166 30.705C86.5139 30.7023 86.5098 30.7037 86.5044 30.7091C86.3906 30.8418 86.224 30.9082 86.0045 30.9082C85.8284 30.9082 85.6685 30.8621 85.525 30.77C85.3841 30.6779 85.2865 30.5424 85.2324 30.3636C85.1971 30.2444 85.1795 30.0792 85.1795 29.8678C85.1795 29.643 85.1998 29.4696 85.2405 29.3476C85.292 29.1851 85.3827 29.055 85.5128 28.9575C85.6455 28.8573 85.8013 28.8071 85.9801 28.8071C86.2023 28.8071 86.377 28.8749 86.5044 29.0103C86.5098 29.0158 86.5139 29.0185 86.5166 29.0185C86.522 29.0158 86.5247 29.0117 86.5247 29.0063V28.8803ZM86.5003 30.2458C86.5084 30.2024 86.5139 30.1564 86.5166 30.1076C86.522 30.0588 86.5247 29.9776 86.5247 29.8638C86.5247 29.75 86.522 29.67 86.5166 29.624C86.5139 29.5752 86.5071 29.5292 86.4962 29.4858C86.4746 29.3856 86.4258 29.3043 86.3499 29.242C86.2741 29.177 86.1793 29.1444 86.0655 29.1444C85.9517 29.1444 85.8568 29.177 85.781 29.242C85.7051 29.3043 85.6509 29.3856 85.6184 29.4858C85.5886 29.5671 85.5737 29.6931 85.5737 29.8638C85.5737 30.0507 85.5873 30.178 85.6144 30.2458C85.6415 30.346 85.6943 30.4287 85.7729 30.4937C85.8541 30.556 85.9517 30.5872 86.0655 30.5872C86.1847 30.5872 86.2809 30.556 86.354 30.4937C86.4299 30.4287 86.4786 30.346 86.5003 30.2458ZM51.3187 35.7169C51.2998 35.7169 51.2903 35.7034 51.2903 35.6763V35.4365C51.2903 35.4094 51.3038 35.3959 51.3309 35.3959H51.3391C51.4474 35.3932 51.5328 35.3796 51.5951 35.3552C51.6574 35.3309 51.7089 35.2848 51.7495 35.2171C51.7902 35.152 51.8294 35.0532 51.8674 34.9204C51.8701 34.9177 51.8701 34.9136 51.8674 34.9082C51.8674 34.9001 51.8674 34.896 51.8674 34.896L51.1887 32.8843L51.1846 32.8681C51.1846 32.8491 51.1968 32.8396 51.2212 32.8396H51.5504C51.5748 32.8396 51.591 32.8505 51.5991 32.8722L52.0584 34.4043C52.0611 34.4097 52.0651 34.4124 52.0706 34.4124C52.076 34.4124 52.08 34.4097 52.0828 34.4043L52.5379 32.8722C52.546 32.8505 52.5623 32.8396 52.5867 32.8396H52.9077C52.9375 32.8396 52.9484 32.8545 52.9403 32.8843L52.2006 35.0504C52.1383 35.2374 52.076 35.3756 52.0137 35.465C51.9514 35.5571 51.8701 35.6221 51.7698 35.66C51.6696 35.698 51.5287 35.7169 51.3472 35.7169H51.3187ZM54.0665 34.9407C53.866 34.9407 53.6912 34.8906 53.5422 34.7903C53.3932 34.6874 53.2889 34.5452 53.2293 34.3636C53.1805 34.2173 53.1562 34.0521 53.1562 33.8678C53.1562 33.6755 53.1792 33.5129 53.2252 33.3802C53.2848 33.2013 53.3892 33.0618 53.5382 32.9616C53.6872 32.8586 53.8646 32.8071 54.0705 32.8071C54.2656 32.8071 54.4349 32.8586 54.5785 32.9616C54.7248 33.0618 54.8292 33.2 54.8915 33.3761C54.9402 33.5143 54.9646 33.6768 54.9646 33.8638C54.9646 34.0534 54.9402 34.22 54.8915 34.3636C54.8319 34.5452 54.7289 34.6874 54.5826 34.7903C54.4363 34.8906 54.2643 34.9407 54.0665 34.9407ZM54.0665 34.6034C54.1749 34.6034 54.2697 34.5736 54.351 34.514C54.4322 34.4517 54.4905 34.365 54.5257 34.2539C54.5555 34.151 54.5704 34.0236 54.5704 33.8719C54.5704 33.7202 54.5569 33.5942 54.5298 33.4939C54.4946 33.3829 54.4363 33.2975 54.355 33.2379C54.2737 33.1756 54.1749 33.1444 54.0584 33.1444C53.9473 33.1444 53.8511 33.1756 53.7698 33.2379C53.6885 33.2975 53.6303 33.3829 53.5951 33.4939C53.5653 33.5888 53.5504 33.7148 53.5504 33.8719C53.5504 34.029 53.5653 34.1564 53.5951 34.2539C53.6276 34.365 53.6845 34.4517 53.7657 34.514C53.8497 34.5736 53.95 34.6034 54.0665 34.6034ZM56.7068 32.8803C56.7068 32.8532 56.7203 32.8396 56.7474 32.8396H57.0522C57.0793 32.8396 57.0929 32.8532 57.0929 32.8803V34.8676C57.0929 34.8947 57.0793 34.9082 57.0522 34.9082H56.7474C56.7203 34.9082 56.7068 34.8947 56.7068 34.8676V34.7172C56.7068 34.7118 56.7041 34.7091 56.6987 34.7091C56.6959 34.7064 56.6919 34.7077 56.6865 34.7131C56.5781 34.8621 56.4115 34.9367 56.1866 34.9367C56.0538 34.9367 55.9306 34.9109 55.8168 34.8594C55.7057 34.808 55.6163 34.7321 55.5486 34.6319C55.4808 34.5316 55.447 34.4097 55.447 34.2661V32.8803C55.447 32.8532 55.4605 32.8396 55.4876 32.8396H55.7924C55.8195 32.8396 55.833 32.8532 55.833 32.8803V34.1442C55.833 34.2851 55.8696 34.3961 55.9428 34.4774C56.0186 34.5587 56.1243 34.5993 56.2598 34.5993C56.3952 34.5993 56.5036 34.5587 56.5849 34.4774C56.6661 34.3934 56.7068 34.2824 56.7068 34.1442V32.8803ZM59.3983 32.8112C59.6204 32.8112 59.7965 32.8762 59.9266 33.0063C60.0566 33.1336 60.1217 33.307 60.1217 33.5265V34.8676C60.1217 34.8947 60.1081 34.9082 60.081 34.9082H59.7722C59.7451 34.9082 59.7315 34.8947 59.7315 34.8676V33.6037C59.7315 33.4682 59.6922 33.3585 59.6137 33.2745C59.5351 33.1905 59.4308 33.1485 59.3007 33.1485C59.1734 33.1485 59.0691 33.1905 58.9878 33.2745C58.9065 33.3585 58.8659 33.4669 58.8659 33.5996V34.8676C58.8659 34.8947 58.8523 34.9082 58.8253 34.9082H58.5164C58.4893 34.9082 58.4758 34.8947 58.4758 34.8676V32.8803C58.4758 32.8532 58.4893 32.8396 58.5164 32.8396H58.8253C58.8523 32.8396 58.8659 32.8532 58.8659 32.8803V33.0266C58.8659 33.032 58.8672 33.0361 58.87 33.0388C58.8754 33.0415 58.8794 33.0401 58.8821 33.0347C58.9987 32.8857 59.1707 32.8112 59.3983 32.8112ZM62.3289 33.6159C62.3398 33.7269 62.3438 33.8516 62.3411 33.9897C62.3411 34.0168 62.3276 34.0304 62.3005 34.0304H61.0041C60.9932 34.0304 60.9878 34.0358 60.9878 34.0466C60.9878 34.1388 60.996 34.2092 61.0122 34.258C61.042 34.3663 61.1016 34.4517 61.191 34.514C61.2831 34.5736 61.3983 34.6034 61.5365 34.6034C61.7369 34.6034 61.8914 34.5208 61.9997 34.3555C62.0133 34.3284 62.0309 34.3243 62.0526 34.3433L62.2842 34.4977C62.3032 34.514 62.3073 34.5316 62.2964 34.5506C62.2206 34.6725 62.1122 34.7687 61.9713 34.8391C61.8331 34.9096 61.676 34.9448 61.4999 34.9448C61.3021 34.9448 61.1355 34.9014 61 34.8147C60.8645 34.728 60.7629 34.6048 60.6952 34.4449C60.6302 34.2851 60.5977 34.0913 60.5977 33.8638C60.5977 33.666 60.6126 33.5156 60.6424 33.4127C60.6912 33.2257 60.7887 33.0781 60.935 32.9697C61.0813 32.8613 61.2588 32.8071 61.4674 32.8071C61.741 32.8071 61.9456 32.8762 62.081 33.0144C62.2165 33.1499 62.2991 33.3504 62.3289 33.6159ZM61.4674 33.1444C61.3509 33.1444 61.2547 33.1742 61.1788 33.2339C61.103 33.2907 61.0515 33.368 61.0244 33.4655C61.0054 33.5251 60.9932 33.601 60.9878 33.6931C60.9878 33.7039 60.9932 33.7093 61.0041 33.7093H61.9347C61.9456 33.7093 61.951 33.7039 61.951 33.6931C61.9456 33.6037 61.9374 33.5373 61.9266 33.4939C61.8995 33.3883 61.8453 33.3043 61.764 33.242C61.6855 33.177 61.5866 33.1444 61.4674 33.1444ZM64.5078 33.6159C64.5186 33.7269 64.5227 33.8516 64.5199 33.9897C64.5199 34.0168 64.5064 34.0304 64.4793 34.0304H63.1829C63.1721 34.0304 63.1666 34.0358 63.1666 34.0466C63.1666 34.1388 63.1748 34.2092 63.191 34.258C63.2208 34.3663 63.2804 34.4517 63.3698 34.514C63.462 34.5736 63.5771 34.6034 63.7153 34.6034C63.9158 34.6034 64.0702 34.5208 64.1786 34.3555C64.1921 34.3284 64.2097 34.3243 64.2314 34.3433L64.4631 34.4977C64.482 34.514 64.4861 34.5316 64.4752 34.5506C64.3994 34.6725 64.291 34.7687 64.1501 34.8391C64.012 34.9096 63.8548 34.9448 63.6787 34.9448C63.4809 34.9448 63.3143 34.9014 63.1788 34.8147C63.0434 34.728 62.9418 34.6048 62.874 34.4449C62.809 34.2851 62.7765 34.0913 62.7765 33.8638C62.7765 33.666 62.7914 33.5156 62.8212 33.4127C62.87 33.2257 62.9675 33.0781 63.1138 32.9697C63.2601 32.8613 63.4376 32.8071 63.6462 32.8071C63.9198 32.8071 64.1244 32.8762 64.2599 33.0144C64.3953 33.1499 64.478 33.3504 64.5078 33.6159ZM63.6462 33.1444C63.5297 33.1444 63.4335 33.1742 63.3577 33.2339C63.2818 33.2907 63.2303 33.368 63.2032 33.4655C63.1843 33.5251 63.1721 33.601 63.1666 33.6931C63.1666 33.7039 63.1721 33.7093 63.1829 33.7093H64.1136C64.1244 33.7093 64.1298 33.7039 64.1298 33.6931C64.1244 33.6037 64.1163 33.5373 64.1054 33.4939C64.0783 33.3883 64.0241 33.3043 63.9429 33.242C63.8643 33.177 63.7654 33.1444 63.6462 33.1444ZM66.2964 32.1041C66.2964 32.077 66.31 32.0634 66.3371 32.0634H66.6459C66.673 32.0634 66.6866 32.077 66.6866 32.1041V34.8676C66.6866 34.8947 66.673 34.9082 66.6459 34.9082H66.3371C66.31 34.9082 66.2964 34.8947 66.2964 34.8676V34.7335C66.2964 34.728 66.2937 34.724 66.2883 34.7213C66.2856 34.7186 66.2815 34.7199 66.2761 34.7253C66.2165 34.7931 66.1461 34.8459 66.0648 34.8838C65.9835 34.9217 65.8955 34.9407 65.8006 34.9407C65.6056 34.9407 65.443 34.8933 65.313 34.7985C65.1856 34.7009 65.0922 34.5641 65.0325 34.388C64.9811 34.2444 64.9553 34.071 64.9553 33.8678C64.9553 33.6782 64.977 33.5143 65.0204 33.3761C65.0772 33.1973 65.1707 33.0577 65.3008 32.9575C65.4308 32.8573 65.5974 32.8071 65.8006 32.8071C65.8928 32.8071 65.9794 32.8261 66.0607 32.864C66.1447 32.8993 66.2165 32.9507 66.2761 33.0185C66.2815 33.0239 66.2856 33.0252 66.2883 33.0225C66.2937 33.0198 66.2964 33.0158 66.2964 33.0103V32.1041ZM66.1948 34.384C66.2572 34.2702 66.2883 34.0995 66.2883 33.8719C66.2883 33.6443 66.2544 33.4709 66.1867 33.3517C66.1081 33.2135 65.993 33.1444 65.8413 33.1444C65.6787 33.1444 65.5582 33.2095 65.4796 33.3395C65.3929 33.475 65.3495 33.6538 65.3495 33.876C65.3495 34.0846 65.3834 34.2526 65.4511 34.3799C65.5297 34.5289 65.6584 34.6034 65.8372 34.6034C65.9944 34.6034 66.1136 34.5303 66.1948 34.384ZM69.0922 33.1201C69.0922 33.1472 69.0786 33.1607 69.0515 33.1607H68.6126C68.6018 33.1607 68.5964 33.1661 68.5964 33.177V34.2539C68.5964 34.3677 68.6221 34.4503 68.6736 34.5018C68.725 34.5506 68.805 34.575 68.9133 34.575H69.0312C69.0583 34.575 69.0718 34.5885 69.0718 34.6156V34.8676C69.0718 34.8947 69.0583 34.9082 69.0312 34.9082C68.9445 34.9136 68.8822 34.9163 68.8443 34.9163C68.6384 34.9163 68.4826 34.8798 68.3769 34.8066C68.2739 34.7307 68.2225 34.5926 68.2225 34.3921V33.177C68.2225 33.1661 68.2171 33.1607 68.2062 33.1607H67.9583C67.9312 33.1607 67.9177 33.1472 67.9177 33.1201V32.8803C67.9177 32.8532 67.9312 32.8396 67.9583 32.8396H68.2062C68.2171 32.8396 68.2225 32.8342 68.2225 32.8234V32.3438C68.2225 32.3167 68.236 32.3032 68.2631 32.3032H68.5557C68.5828 32.3032 68.5964 32.3167 68.5964 32.3438V32.8234C68.5964 32.8342 68.6018 32.8396 68.6126 32.8396H69.0515C69.0786 32.8396 69.0922 32.8532 69.0922 32.8803V33.1201ZM70.37 34.9407C70.1695 34.9407 69.9947 34.8906 69.8457 34.7903C69.6967 34.6874 69.5924 34.5452 69.5328 34.3636C69.484 34.2173 69.4596 34.0521 69.4596 33.8678C69.4596 33.6755 69.4827 33.5129 69.5287 33.3802C69.5883 33.2013 69.6926 33.0618 69.8416 32.9616C69.9907 32.8586 70.1681 32.8071 70.374 32.8071C70.5691 32.8071 70.7384 32.8586 70.882 32.9616C71.0283 33.0618 71.1326 33.2 71.1949 33.3761C71.2437 33.5143 71.2681 33.6768 71.2681 33.8638C71.2681 34.0534 71.2437 34.22 71.1949 34.3636C71.1353 34.5452 71.0324 34.6874 70.8861 34.7903C70.7398 34.8906 70.5677 34.9407 70.37 34.9407ZM70.37 34.6034C70.4783 34.6034 70.5732 34.5736 70.6544 34.514C70.7357 34.4517 70.794 34.365 70.8292 34.2539C70.859 34.151 70.8739 34.0236 70.8739 33.8719C70.8739 33.7202 70.8603 33.5942 70.8333 33.4939C70.798 33.3829 70.7398 33.2975 70.6585 33.2379C70.5772 33.1756 70.4783 33.1444 70.3618 33.1444C70.2507 33.1444 70.1546 33.1756 70.0733 33.2379C69.992 33.2975 69.9338 33.3829 69.8985 33.4939C69.8687 33.5888 69.8538 33.7148 69.8538 33.8719C69.8538 34.029 69.8687 34.1564 69.8985 34.2539C69.9311 34.365 69.9879 34.4517 70.0692 34.514C70.1532 34.5736 70.2535 34.6034 70.37 34.6034ZM73.137 34.9082C73.1127 34.9082 73.0964 34.8974 73.0883 34.8757L72.4258 32.8843L72.4218 32.8681C72.4218 32.8491 72.434 32.8396 72.4584 32.8396H72.7997C72.8241 32.8396 72.8404 32.8505 72.8485 32.8722L73.2955 34.3433C73.2982 34.3487 73.3023 34.3514 73.3077 34.3514C73.3131 34.3514 73.3172 34.3487 73.3199 34.3433L73.7629 32.8722C73.771 32.8505 73.7873 32.8396 73.8117 32.8396L74.153 32.8437C74.1828 32.8437 74.1937 32.8586 74.1855 32.8884L73.5272 34.8757C73.5191 34.8974 73.5028 34.9082 73.4784 34.9082H73.137ZM75.3428 34.9407C75.1423 34.9407 74.9675 34.8906 74.8185 34.7903C74.6695 34.6874 74.5652 34.5452 74.5056 34.3636C74.4568 34.2173 74.4324 34.0521 74.4324 33.8678C74.4324 33.6755 74.4555 33.5129 74.5015 33.3802C74.5611 33.2013 74.6654 33.0618 74.8144 32.9616C74.9635 32.8586 75.1409 32.8071 75.3468 32.8071C75.5419 32.8071 75.7112 32.8586 75.8548 32.9616C76.0011 33.0618 76.1054 33.2 76.1677 33.3761C76.2165 33.5143 76.2409 33.6768 76.2409 33.8638C76.2409 34.0534 76.2165 34.22 76.1677 34.3636C76.1081 34.5452 76.0052 34.6874 75.8589 34.7903C75.7126 34.8906 75.5405 34.9407 75.3428 34.9407ZM75.3428 34.6034C75.4511 34.6034 75.546 34.5736 75.6272 34.514C75.7085 34.4517 75.7668 34.365 75.802 34.2539C75.8318 34.151 75.8467 34.0236 75.8467 33.8719C75.8467 33.7202 75.8331 33.5942 75.8061 33.4939C75.7708 33.3829 75.7126 33.2975 75.6313 33.2379C75.55 33.1756 75.4511 33.1444 75.3346 33.1444C75.2235 33.1444 75.1274 33.1756 75.0461 33.2379C74.9648 33.2975 74.9066 33.3829 74.8713 33.4939C74.8415 33.5888 74.8266 33.7148 74.8266 33.8719C74.8266 34.029 74.8415 34.1564 74.8713 34.2539C74.9039 34.365 74.9607 34.4517 75.042 34.514C75.126 34.5736 75.2263 34.6034 75.3428 34.6034ZM77.736 33.1201C77.736 33.1472 77.7225 33.1607 77.6954 33.1607H77.2565C77.2456 33.1607 77.2402 33.1661 77.2402 33.177V34.2539C77.2402 34.3677 77.266 34.4503 77.3174 34.5018C77.3689 34.5506 77.4488 34.575 77.5572 34.575H77.6751C77.7022 34.575 77.7157 34.5885 77.7157 34.6156V34.8676C77.7157 34.8947 77.7022 34.9082 77.6751 34.9082C77.5884 34.9136 77.526 34.9163 77.4881 34.9163C77.2822 34.9163 77.1264 34.8798 77.0208 34.8066C76.9178 34.7307 76.8663 34.5926 76.8663 34.3921V33.177C76.8663 33.1661 76.8609 33.1607 76.8501 33.1607H76.6022C76.5751 33.1607 76.5615 33.1472 76.5615 33.1201V32.8803C76.5615 32.8532 76.5751 32.8396 76.6022 32.8396H76.8501C76.8609 32.8396 76.8663 32.8342 76.8663 32.8234V32.3438C76.8663 32.3167 76.8799 32.3032 76.907 32.3032H77.1996C77.2267 32.3032 77.2402 32.3167 77.2402 32.3438V32.8234C77.2402 32.8342 77.2456 32.8396 77.2565 32.8396H77.6954C77.7225 32.8396 77.736 32.8532 77.736 32.8803V33.1201ZM79.8429 33.6159C79.8537 33.7269 79.8578 33.8516 79.8551 33.9897C79.8551 34.0168 79.8415 34.0304 79.8144 34.0304H78.518C78.5072 34.0304 78.5018 34.0358 78.5018 34.0466C78.5018 34.1388 78.5099 34.2092 78.5261 34.258C78.5559 34.3663 78.6156 34.4517 78.705 34.514C78.7971 34.5736 78.9122 34.6034 79.0504 34.6034C79.2509 34.6034 79.4053 34.5208 79.5137 34.3555C79.5272 34.3284 79.5448 34.3243 79.5665 34.3433L79.7982 34.4977C79.8171 34.514 79.8212 34.5316 79.8104 34.5506C79.7345 34.6725 79.6261 34.7687 79.4852 34.8391C79.3471 34.9096 79.1899 34.9448 79.0138 34.9448C78.816 34.9448 78.6494 34.9014 78.514 34.8147C78.3785 34.728 78.2769 34.6048 78.2092 34.4449C78.1441 34.2851 78.1116 34.0913 78.1116 33.8638C78.1116 33.666 78.1265 33.5156 78.1563 33.4127C78.2051 33.2257 78.3026 33.0781 78.4489 32.9697C78.5952 32.8613 78.7727 32.8071 78.9813 32.8071C79.2549 32.8071 79.4595 32.8762 79.595 33.0144C79.7304 33.1499 79.8131 33.3504 79.8429 33.6159ZM78.9813 33.1444C78.8648 33.1444 78.7686 33.1742 78.6928 33.2339C78.6169 33.2907 78.5654 33.368 78.5383 33.4655C78.5194 33.5251 78.5072 33.601 78.5018 33.6931C78.5018 33.7039 78.5072 33.7093 78.518 33.7093H79.4487C79.4595 33.7093 79.4649 33.7039 79.4649 33.6931C79.4595 33.6037 79.4514 33.5373 79.4405 33.4939C79.4134 33.3883 79.3593 33.3043 79.278 33.242C79.1994 33.177 79.1005 33.1444 78.9813 33.1444ZM52.3022 36.8112C52.5244 36.8112 52.7005 36.8762 52.8305 37.0063C52.9606 37.1336 53.0256 37.307 53.0256 37.5265V38.8676C53.0256 38.8947 53.0121 38.9082 52.985 38.9082H52.6761C52.649 38.9082 52.6355 38.8947 52.6355 38.8676V37.6037C52.6355 37.4682 52.5962 37.3585 52.5176 37.2745C52.439 37.1905 52.3347 37.1485 52.2047 37.1485C52.0773 37.1485 51.973 37.1905 51.8918 37.2745C51.8105 37.3585 51.7698 37.4669 51.7698 37.5996V38.8676C51.7698 38.8947 51.7563 38.9082 51.7292 38.9082H51.4203C51.3932 38.9082 51.3797 38.8947 51.3797 38.8676V36.1041C51.3797 36.077 51.3932 36.0634 51.4203 36.0634H51.7292C51.7563 36.0634 51.7698 36.077 51.7698 36.1041V37.0266C51.7698 37.032 51.7712 37.0361 51.7739 37.0388C51.7793 37.0415 51.7834 37.0401 51.7861 37.0347C51.9026 36.8857 52.0746 36.8112 52.3022 36.8112ZM55.2329 37.6159C55.2437 37.7269 55.2478 37.8516 55.2451 37.9897C55.2451 38.0168 55.2315 38.0304 55.2044 38.0304H53.908C53.8972 38.0304 53.8918 38.0358 53.8918 38.0466C53.8918 38.1388 53.8999 38.2092 53.9161 38.258C53.9459 38.3663 54.0056 38.4517 54.095 38.514C54.1871 38.5736 54.3022 38.6034 54.4404 38.6034C54.6409 38.6034 54.7953 38.5208 54.9037 38.3555C54.9172 38.3284 54.9348 38.3243 54.9565 38.3433L55.1882 38.4977C55.2071 38.514 55.2112 38.5316 55.2004 38.5506C55.1245 38.6725 55.0161 38.7687 54.8752 38.8391C54.7371 38.9096 54.5799 38.9448 54.4038 38.9448C54.206 38.9448 54.0394 38.9014 53.904 38.8147C53.7685 38.728 53.6669 38.6048 53.5992 38.4449C53.5341 38.2851 53.5016 38.0913 53.5016 37.8638C53.5016 37.666 53.5165 37.5156 53.5463 37.4127C53.5951 37.2257 53.6926 37.0781 53.8389 36.9697C53.9852 36.8613 54.1627 36.8071 54.3713 36.8071C54.6449 36.8071 54.8495 36.8762 54.985 37.0144C55.1204 37.1499 55.2031 37.3504 55.2329 37.6159ZM54.3713 37.1444C54.2548 37.1444 54.1586 37.1742 54.0828 37.2339C54.0069 37.2907 53.9554 37.368 53.9283 37.4655C53.9094 37.5251 53.8972 37.601 53.8918 37.6931C53.8918 37.7039 53.8972 37.7093 53.908 37.7093H54.8387C54.8495 37.7093 54.8549 37.7039 54.8549 37.6931C54.8495 37.6037 54.8414 37.5373 54.8305 37.4939C54.8034 37.3883 54.7493 37.3043 54.668 37.242C54.5894 37.177 54.4905 37.1444 54.3713 37.1444ZM56.6436 36.8193C56.7303 36.8193 56.8089 36.8369 56.8793 36.8722C56.8983 36.8803 56.9051 36.8965 56.8996 36.9209L56.8346 37.2257C56.8319 37.2501 56.8156 37.2582 56.7858 37.2501C56.7398 37.2311 56.6856 37.2217 56.6233 37.2217L56.5664 37.2257C56.4391 37.2311 56.3334 37.2758 56.2494 37.3598C56.1681 37.4411 56.1275 37.5481 56.1275 37.6809V38.8676C56.1275 38.8947 56.1139 38.9082 56.0868 38.9082H55.778C55.7509 38.9082 55.7373 38.8947 55.7373 38.8676V36.8803C55.7373 36.8532 55.7509 36.8396 55.778 36.8396H56.0868C56.1139 36.8396 56.1275 36.8532 56.1275 36.8803V37.0957C56.1275 37.1038 56.1288 37.1092 56.1315 37.1119C56.137 37.1119 56.141 37.1092 56.1437 37.1038C56.2657 36.9142 56.4323 36.8193 56.6436 36.8193ZM58.8881 37.6159C58.8989 37.7269 58.903 37.8516 58.9002 37.9897C58.9002 38.0168 58.8867 38.0304 58.8596 38.0304H57.5632C57.5524 38.0304 57.5469 38.0358 57.5469 38.0466C57.5469 38.1388 57.5551 38.2092 57.5713 38.258C57.6011 38.3663 57.6607 38.4517 57.7501 38.514C57.8423 38.5736 57.9574 38.6034 58.0956 38.6034C58.2961 38.6034 58.4505 38.5208 58.5589 38.3555C58.5724 38.3284 58.59 38.3243 58.6117 38.3433L58.8434 38.4977C58.8623 38.514 58.8664 38.5316 58.8555 38.5506C58.7797 38.6725 58.6713 38.7687 58.5304 38.8391C58.3923 38.9096 58.2351 38.9448 58.059 38.9448C57.8612 38.9448 57.6946 38.9014 57.5591 38.8147C57.4237 38.728 57.3221 38.6048 57.2543 38.4449C57.1893 38.2851 57.1568 38.0913 57.1568 37.8638C57.1568 37.666 57.1717 37.5156 57.2015 37.4127C57.2503 37.2257 57.3478 37.0781 57.4941 36.9697C57.6404 36.8613 57.8179 36.8071 58.0265 36.8071C58.3001 36.8071 58.5047 36.8762 58.6402 37.0144C58.7756 37.1499 58.8583 37.3504 58.8881 37.6159ZM58.0265 37.1444C57.91 37.1444 57.8138 37.1742 57.738 37.2339C57.6621 37.2907 57.6106 37.368 57.5835 37.4655C57.5646 37.5251 57.5524 37.601 57.5469 37.6931C57.5469 37.7039 57.5524 37.7093 57.5632 37.7093H58.4939C58.5047 37.7093 58.5101 37.7039 58.5101 37.6931C58.5047 37.6037 58.4966 37.5373 58.4857 37.4939C58.4586 37.3883 58.4044 37.3043 58.3232 37.242C58.2446 37.177 58.1457 37.1444 58.0265 37.1444ZM59.8071 37.5102C59.7312 37.5102 59.6689 37.4858 59.6201 37.437C59.5713 37.3883 59.547 37.326 59.547 37.2501C59.547 37.1742 59.5713 37.1119 59.6201 37.0632C59.6689 37.0144 59.7312 36.99 59.8071 36.99C59.8829 36.99 59.9452 37.0144 59.994 37.0632C60.0428 37.1119 60.0671 37.1742 60.0671 37.2501C60.0671 37.326 60.0428 37.3883 59.994 37.437C59.9452 37.4858 59.8829 37.5102 59.8071 37.5102ZM59.8071 38.8635C59.7312 38.8635 59.6689 38.8391 59.6201 38.7903C59.5713 38.7416 59.547 38.6793 59.547 38.6034C59.547 38.5275 59.5713 38.4652 59.6201 38.4165C59.6689 38.3677 59.7312 38.3433 59.8071 38.3433C59.8829 38.3433 59.9452 38.3677 59.994 38.4165C60.0428 38.4652 60.0671 38.5275 60.0671 38.6034C60.0671 38.6793 60.0428 38.7416 59.994 38.7903C59.9452 38.8391 59.8829 38.8635 59.8071 38.8635Z" fill="#F7F8FF"/>
<path d="M62.1635 38.9082C62.1392 38.9082 62.1229 38.8974 62.1148 38.8757L61.4524 36.8843L61.4483 36.8681C61.4483 36.8491 61.4605 36.8396 61.4849 36.8396H61.8262C61.8506 36.8396 61.8669 36.8505 61.875 36.8722L62.322 38.3433C62.3247 38.3487 62.3288 38.3514 62.3342 38.3514C62.3397 38.3514 62.3437 38.3487 62.3464 38.3433L62.7894 36.8722C62.7975 36.8505 62.8138 36.8396 62.8382 36.8396L63.1795 36.8437C63.2093 36.8437 63.2202 36.8586 63.212 36.8884L62.5537 38.8757C62.5456 38.8974 62.5293 38.9082 62.5049 38.9082H62.1635ZM64.3693 38.9407C64.1688 38.9407 63.994 38.8906 63.845 38.7903C63.696 38.6874 63.5917 38.5452 63.5321 38.3636C63.4833 38.2173 63.4589 38.0521 63.4589 37.8678C63.4589 37.6755 63.482 37.5129 63.528 37.3802C63.5876 37.2013 63.6919 37.0618 63.8409 36.9616C63.99 36.8586 64.1674 36.8071 64.3733 36.8071C64.5684 36.8071 64.7377 36.8586 64.8813 36.9616C65.0276 37.0618 65.1319 37.2 65.1942 37.3761C65.243 37.5143 65.2674 37.6768 65.2674 37.8638C65.2674 38.0534 65.243 38.22 65.1942 38.3636C65.1346 38.5452 65.0317 38.6874 64.8854 38.7903C64.7391 38.8906 64.567 38.9407 64.3693 38.9407ZM64.3693 38.6034C64.4776 38.6034 64.5725 38.5736 64.6537 38.514C64.735 38.4517 64.7933 38.365 64.8285 38.2539C64.8583 38.151 64.8732 38.0236 64.8732 37.8719C64.8732 37.7202 64.8596 37.5942 64.8326 37.4939C64.7973 37.3829 64.7391 37.2975 64.6578 37.2379C64.5765 37.1756 64.4776 37.1444 64.3611 37.1444C64.2501 37.1444 64.1539 37.1756 64.0726 37.2379C63.9913 37.2975 63.9331 37.3829 63.8978 37.4939C63.868 37.5888 63.8531 37.7148 63.8531 37.8719C63.8531 38.029 63.868 38.1564 63.8978 38.2539C63.9304 38.365 63.9873 38.4517 64.0685 38.514C64.1525 38.5736 64.2528 38.6034 64.3693 38.6034ZM66.7625 37.1201C66.7625 37.1472 66.749 37.1607 66.7219 37.1607H66.283C66.2721 37.1607 66.2667 37.1661 66.2667 37.177V38.2539C66.2667 38.3677 66.2925 38.4503 66.3439 38.5018C66.3954 38.5506 66.4753 38.575 66.5837 38.575H66.7016C66.7287 38.575 66.7422 38.5885 66.7422 38.6156V38.8676C66.7422 38.8947 66.7287 38.9082 66.7016 38.9082C66.6149 38.9136 66.5526 38.9163 66.5146 38.9163C66.3087 38.9163 66.1529 38.8798 66.0473 38.8066C65.9443 38.7307 65.8928 38.5926 65.8928 38.3921V37.177C65.8928 37.1661 65.8874 37.1607 65.8766 37.1607H65.6287C65.6016 37.1607 65.588 37.1472 65.588 37.1201V36.8803C65.588 36.8532 65.6016 36.8396 65.6287 36.8396H65.8766C65.8874 36.8396 65.8928 36.8342 65.8928 36.8234V36.3438C65.8928 36.3167 65.9064 36.3032 65.9335 36.3032H66.2261C66.2532 36.3032 66.2667 36.3167 66.2667 36.3438V36.8234C66.2667 36.8342 66.2721 36.8396 66.283 36.8396H66.7219C66.749 36.8396 66.7625 36.8532 66.7625 36.8803V37.1201ZM68.8694 37.6159C68.8802 37.7269 68.8843 37.8516 68.8816 37.9897C68.8816 38.0168 68.868 38.0304 68.8409 38.0304H67.5445C67.5337 38.0304 67.5283 38.0358 67.5283 38.0466C67.5283 38.1388 67.5364 38.2092 67.5526 38.258C67.5825 38.3663 67.6421 38.4517 67.7315 38.514C67.8236 38.5736 67.9387 38.6034 68.0769 38.6034C68.2774 38.6034 68.4318 38.5208 68.5402 38.3555C68.5537 38.3284 68.5713 38.3243 68.593 38.3433L68.8247 38.4977C68.8436 38.514 68.8477 38.5316 68.8369 38.5506C68.761 38.6725 68.6526 38.7687 68.5117 38.8391C68.3736 38.9096 68.2164 38.9448 68.0403 38.9448C67.8425 38.9448 67.6759 38.9014 67.5405 38.8147C67.405 38.728 67.3034 38.6048 67.2357 38.4449C67.1706 38.2851 67.1381 38.0913 67.1381 37.8638C67.1381 37.666 67.153 37.5156 67.1828 37.4127C67.2316 37.2257 67.3291 37.0781 67.4754 36.9697C67.6217 36.8613 67.7992 36.8071 68.0078 36.8071C68.2815 36.8071 68.486 36.8762 68.6215 37.0144C68.7569 37.1499 68.8396 37.3504 68.8694 37.6159ZM68.0078 37.1444C67.8913 37.1444 67.7951 37.1742 67.7193 37.2339C67.6434 37.2907 67.5919 37.368 67.5648 37.4655C67.5459 37.5251 67.5337 37.601 67.5283 37.6931C67.5283 37.7039 67.5337 37.7093 67.5445 37.7093H68.4752C68.486 37.7093 68.4914 37.7039 68.4914 37.6931C68.486 37.6037 68.4779 37.5373 68.467 37.4939C68.4399 37.3883 68.3858 37.3043 68.3045 37.242C68.2259 37.177 68.127 37.1444 68.0078 37.1444ZM69.5586 38.9082C69.4828 38.9082 69.4205 38.8838 69.3717 38.8351C69.3229 38.7863 69.2985 38.724 69.2985 38.6481C69.2985 38.5722 69.3229 38.5099 69.3717 38.4612C69.4205 38.4124 69.4828 38.388 69.5586 38.388C69.6345 38.388 69.6968 38.4124 69.7456 38.4612C69.7943 38.5099 69.8187 38.5722 69.8187 38.6481C69.8187 38.724 69.7943 38.7863 69.7456 38.8351C69.6968 38.8838 69.6345 38.9082 69.5586 38.9082ZM71.1915 38.9407C70.991 38.9407 70.8162 38.8906 70.6672 38.7903C70.5182 38.6874 70.4139 38.5452 70.3543 38.3636C70.3055 38.2173 70.2812 38.0521 70.2812 37.8678C70.2812 37.6755 70.3042 37.5129 70.3502 37.3802C70.4098 37.2013 70.5142 37.0618 70.6632 36.9616C70.8122 36.8586 70.9896 36.8071 71.1955 36.8071C71.3906 36.8071 71.5599 36.8586 71.7035 36.9616C71.8498 37.0618 71.9542 37.2 72.0165 37.3761C72.0652 37.5143 72.0896 37.6768 72.0896 37.8638C72.0896 38.0534 72.0652 38.22 72.0165 38.3636C71.9569 38.5452 71.8539 38.6874 71.7076 38.7903C71.5613 38.8906 71.3893 38.9407 71.1915 38.9407ZM71.1915 38.6034C71.2999 38.6034 71.3947 38.5736 71.476 38.514C71.5572 38.4517 71.6155 38.365 71.6507 38.2539C71.6805 38.151 71.6954 38.0236 71.6954 37.8719C71.6954 37.7202 71.6819 37.5942 71.6548 37.4939C71.6196 37.3829 71.5613 37.2975 71.48 37.2379C71.3987 37.1756 71.2999 37.1444 71.1834 37.1444C71.0723 37.1444 70.9761 37.1756 70.8948 37.2379C70.8135 37.2975 70.7553 37.3829 70.7201 37.4939C70.6903 37.5888 70.6754 37.7148 70.6754 37.8719C70.6754 38.029 70.6903 38.1564 70.7201 38.2539C70.7526 38.365 70.8095 38.4517 70.8907 38.514C70.9747 38.5736 71.075 38.6034 71.1915 38.6034ZM73.5067 36.8193C73.5934 36.8193 73.6719 36.8369 73.7424 36.8722C73.7613 36.8803 73.7681 36.8965 73.7627 36.9209L73.6977 37.2257C73.695 37.2501 73.6787 37.2582 73.6489 37.2501C73.6029 37.2311 73.5487 37.2217 73.4864 37.2217L73.4295 37.2257C73.3021 37.2311 73.1965 37.2758 73.1125 37.3598C73.0312 37.4411 72.9905 37.5481 72.9905 37.6809V38.8676C72.9905 38.8947 72.977 38.9082 72.9499 38.9082H72.641C72.614 38.9082 72.6004 38.8947 72.6004 38.8676V36.8803C72.6004 36.8532 72.614 36.8396 72.641 36.8396H72.9499C72.977 36.8396 72.9905 36.8532 72.9905 36.8803V37.0957C72.9905 37.1038 72.9919 37.1092 72.9946 37.1119C73 37.1119 73.0041 37.1092 73.0068 37.1038C73.1287 36.9142 73.2953 36.8193 73.5067 36.8193ZM75.317 36.8803C75.317 36.8532 75.3306 36.8396 75.3577 36.8396H75.6665C75.6936 36.8396 75.7072 36.8532 75.7072 36.8803V38.8025C75.7072 39.1304 75.6137 39.3647 75.4268 39.5056C75.2425 39.6465 74.9946 39.7169 74.6831 39.7169C74.6397 39.7169 74.572 39.7142 74.4799 39.7088C74.4528 39.7061 74.4392 39.6912 74.4392 39.6641L74.4514 39.3837C74.4514 39.3728 74.4555 39.3634 74.4636 39.3552C74.4717 39.3471 74.4826 39.3444 74.4961 39.3471C74.534 39.3498 74.5896 39.3512 74.6627 39.3512C74.893 39.3512 75.0597 39.3078 75.1626 39.2211C75.2656 39.1371 75.317 38.9935 75.317 38.7903V38.7172C75.317 38.7118 75.3143 38.7077 75.3089 38.705C75.3062 38.7023 75.3021 38.7037 75.2967 38.7091C75.1829 38.8418 75.0163 38.9082 74.7969 38.9082C74.6207 38.9082 74.4609 38.8621 74.3173 38.77C74.1764 38.6779 74.0789 38.5424 74.0247 38.3636C73.9895 38.2444 73.9719 38.0792 73.9719 37.8678C73.9719 37.643 73.9922 37.4696 74.0328 37.3476C74.0843 37.1851 74.1751 37.055 74.3051 36.9575C74.4379 36.8573 74.5937 36.8071 74.7725 36.8071C74.9946 36.8071 75.1694 36.8749 75.2967 37.0103C75.3021 37.0158 75.3062 37.0185 75.3089 37.0185C75.3143 37.0158 75.317 37.0117 75.317 37.0063V36.8803ZM75.2927 38.2458C75.3008 38.2024 75.3062 38.1564 75.3089 38.1076C75.3143 38.0588 75.317 37.9776 75.317 37.8638C75.317 37.75 75.3143 37.67 75.3089 37.624C75.3062 37.5752 75.2994 37.5292 75.2886 37.4858C75.2669 37.3856 75.2182 37.3043 75.1423 37.242C75.0664 37.177 74.9716 37.1444 74.8578 37.1444C74.744 37.1444 74.6492 37.177 74.5733 37.242C74.4975 37.3043 74.4433 37.3856 74.4108 37.4858C74.381 37.5671 74.3661 37.6931 74.3661 37.8638C74.3661 38.0507 74.3796 38.178 74.4067 38.2458C74.4338 38.346 74.4866 38.4287 74.5652 38.4937C74.6465 38.556 74.744 38.5872 74.8578 38.5872C74.977 38.5872 75.0732 38.556 75.1464 38.4937C75.2222 38.4287 75.271 38.346 75.2927 38.2458ZM76.1175 38.9082C76.0877 38.9082 76.0769 38.8933 76.085 38.8635L77.04 36.0959C77.0482 36.0743 77.0644 36.0634 77.0888 36.0634H77.3936C77.4234 36.0634 77.4342 36.0783 77.4261 36.1081L76.4711 38.8757C76.463 38.8974 76.4467 38.9082 76.4223 38.9082H76.1175ZM52.1071 42.9326C51.9446 42.9326 51.801 42.9082 51.6764 42.8594C51.5544 42.8107 51.4596 42.7443 51.3919 42.6603C51.3242 42.5736 51.2903 42.4788 51.2903 42.3758V42.3311C51.2903 42.304 51.3038 42.2905 51.3309 42.2905H51.6235C51.6506 42.2905 51.6642 42.304 51.6642 42.3311V42.3514C51.6642 42.4273 51.7048 42.4937 51.7861 42.5506C51.8701 42.6075 51.9757 42.6359 52.1031 42.6359C52.225 42.6359 52.3239 42.6102 52.3997 42.5587C52.4756 42.5045 52.5135 42.4368 52.5135 42.3555C52.5135 42.2769 52.4783 42.2187 52.4079 42.1808C52.3374 42.1401 52.2236 42.0981 52.0665 42.0548C51.9121 42.0114 51.782 41.9681 51.6764 41.9247C51.5734 41.8787 51.4854 41.815 51.4122 41.7337C51.3418 41.6497 51.3065 41.5427 51.3065 41.4127C51.3065 41.2311 51.377 41.0875 51.5179 40.9819C51.6615 40.8735 51.8511 40.8193 52.0868 40.8193C52.244 40.8193 52.3821 40.8451 52.5013 40.8965C52.6233 40.9453 52.7167 41.0144 52.7818 41.1038C52.8468 41.1932 52.8793 41.2935 52.8793 41.4045V41.4167C52.8793 41.4438 52.8657 41.4574 52.8387 41.4574H52.5542C52.5271 41.4574 52.5135 41.4438 52.5135 41.4167V41.4045C52.5135 41.326 52.4743 41.2609 52.3957 41.2095C52.3198 41.1553 52.2155 41.1282 52.0828 41.1282C51.9635 41.1282 51.866 41.1512 51.7902 41.1973C51.717 41.2433 51.6804 41.3056 51.6804 41.3842C51.6804 41.4628 51.7156 41.5224 51.7861 41.563C51.8592 41.6037 51.9757 41.647 52.1356 41.6931C52.2927 41.7364 52.4228 41.7798 52.5257 41.8231C52.6314 41.8638 52.7208 41.9261 52.794 42.0101C52.8671 42.0913 52.9037 42.1984 52.9037 42.3311C52.9037 42.5154 52.8305 42.6617 52.6842 42.77C52.5406 42.8784 52.3483 42.9326 52.1071 42.9326ZM54.3762 41.1201C54.3762 41.1472 54.3626 41.1607 54.3355 41.1607H53.8966C53.8858 41.1607 53.8804 41.1661 53.8804 41.177V42.2539C53.8804 42.3677 53.9061 42.4503 53.9576 42.5018C54.0091 42.5506 54.089 42.575 54.1974 42.575H54.3152C54.3423 42.575 54.3558 42.5885 54.3558 42.6156V42.8676C54.3558 42.8947 54.3423 42.9082 54.3152 42.9082C54.2285 42.9136 54.1662 42.9163 54.1283 42.9163C53.9224 42.9163 53.7666 42.8798 53.6609 42.8066C53.558 42.7307 53.5065 42.5926 53.5065 42.3921V41.177C53.5065 41.1661 53.5011 41.1607 53.4902 41.1607H53.2423C53.2152 41.1607 53.2017 41.1472 53.2017 41.1201V40.8803C53.2017 40.8532 53.2152 40.8396 53.2423 40.8396H53.4902C53.5011 40.8396 53.5065 40.8342 53.5065 40.8234V40.3438C53.5065 40.3167 53.52 40.3032 53.5471 40.3032H53.8397C53.8668 40.3032 53.8804 40.3167 53.8804 40.3438V40.8234C53.8804 40.8342 53.8858 40.8396 53.8966 40.8396H54.3355C54.3626 40.8396 54.3762 40.8532 54.3762 40.8803V41.1201ZM55.6122 40.8071C55.7775 40.8071 55.921 40.8369 56.043 40.8965C56.1676 40.9534 56.2624 41.0347 56.3274 41.1404C56.3952 41.2433 56.429 41.3612 56.429 41.4939V42.8676C56.429 42.8947 56.4155 42.9082 56.3884 42.9082H56.0795C56.0524 42.9082 56.0389 42.8947 56.0389 42.8676V42.7213C56.0389 42.7077 56.0321 42.705 56.0186 42.7131C55.9481 42.7863 55.8614 42.8432 55.7585 42.8838C55.6582 42.9217 55.5458 42.9407 55.4212 42.9407C55.2207 42.9407 55.0541 42.8906 54.9213 42.7903C54.7913 42.6874 54.7262 42.533 54.7262 42.3271C54.7262 42.1157 54.7994 41.9505 54.9457 41.8313C55.0947 41.7093 55.302 41.6484 55.5675 41.6484H56.0226C56.0335 41.6484 56.0389 41.643 56.0389 41.6321V41.5224C56.0389 41.4032 56.0037 41.3111 55.9332 41.246C55.8655 41.1783 55.7612 41.1444 55.6203 41.1444C55.5065 41.1444 55.413 41.1675 55.3399 41.2135C55.2695 41.2569 55.2261 41.3165 55.2099 41.3923C55.2017 41.4194 55.1855 41.4316 55.1611 41.4289L54.8319 41.3842C54.8048 41.3788 54.7926 41.368 54.7953 41.3517C54.817 41.1919 54.9023 41.0618 55.0514 40.9616C55.2004 40.8586 55.3873 40.8071 55.6122 40.8071ZM55.5065 42.6115C55.6501 42.6115 55.7747 42.5736 55.8804 42.4977C55.9861 42.4219 56.0389 42.3257 56.0389 42.2092V41.9694C56.0389 41.9586 56.0335 41.9532 56.0226 41.9532H55.6406C55.4808 41.9532 55.3534 41.9843 55.2586 42.0466C55.1638 42.109 55.1164 42.1957 55.1164 42.3067C55.1164 42.407 55.1516 42.4828 55.222 42.5343C55.2952 42.5858 55.39 42.6115 55.5065 42.6115ZM57.948 41.1201C57.948 41.1472 57.9345 41.1607 57.9074 41.1607H57.4685C57.4576 41.1607 57.4522 41.1661 57.4522 41.177V42.2539C57.4522 42.3677 57.4779 42.4503 57.5294 42.5018C57.5809 42.5506 57.6608 42.575 57.7692 42.575H57.8871C57.9141 42.575 57.9277 42.5885 57.9277 42.6156V42.8676C57.9277 42.8947 57.9141 42.9082 57.8871 42.9082C57.8004 42.9136 57.738 42.9163 57.7001 42.9163C57.4942 42.9163 57.3384 42.8798 57.2328 42.8066C57.1298 42.7307 57.0783 42.5926 57.0783 42.3921V41.177C57.0783 41.1661 57.0729 41.1607 57.0621 41.1607H56.8142C56.7871 41.1607 56.7735 41.1472 56.7735 41.1201V40.8803C56.7735 40.8532 56.7871 40.8396 56.8142 40.8396H57.0621C57.0729 40.8396 57.0783 40.8342 57.0783 40.8234V40.3438C57.0783 40.3167 57.0919 40.3032 57.119 40.3032H57.4116C57.4387 40.3032 57.4522 40.3167 57.4522 40.3438V40.8234C57.4522 40.8342 57.4576 40.8396 57.4685 40.8396H57.9074C57.9345 40.8396 57.948 40.8532 57.948 40.8803V41.1201ZM60.0549 41.6159C60.0657 41.7269 60.0698 41.8516 60.067 41.9897C60.067 42.0168 60.0535 42.0304 60.0264 42.0304H58.73C58.7192 42.0304 58.7137 42.0358 58.7137 42.0466C58.7137 42.1388 58.7219 42.2092 58.7381 42.258C58.7679 42.3663 58.8275 42.4517 58.9169 42.514C59.0091 42.5736 59.1242 42.6034 59.2624 42.6034C59.4629 42.6034 59.6173 42.5208 59.7257 42.3555C59.7392 42.3284 59.7568 42.3243 59.7785 42.3433L60.0102 42.4977C60.0291 42.514 60.0332 42.5316 60.0223 42.5506C59.9465 42.6725 59.8381 42.7687 59.6972 42.8391C59.5591 42.9096 59.4019 42.9448 59.2258 42.9448C59.028 42.9448 58.8614 42.9014 58.7259 42.8147C58.5905 42.728 58.4889 42.6048 58.4211 42.4449C58.3561 42.2851 58.3236 42.0913 58.3236 41.8638C58.3236 41.666 58.3385 41.5156 58.3683 41.4127C58.4171 41.2257 58.5146 41.0781 58.6609 40.9697C58.8072 40.8613 58.9847 40.8071 59.1933 40.8071C59.4669 40.8071 59.6715 40.8762 59.807 41.0144C59.9424 41.1499 60.0251 41.3504 60.0549 41.6159ZM59.1933 41.1444C59.0768 41.1444 58.9806 41.1742 58.9048 41.2339C58.8289 41.2907 58.7774 41.368 58.7503 41.4655C58.7314 41.5251 58.7192 41.601 58.7137 41.6931C58.7137 41.7039 58.7192 41.7093 58.73 41.7093H59.6607C59.6715 41.7093 59.6769 41.7039 59.6769 41.6931C59.6715 41.6037 59.6634 41.5373 59.6525 41.4939C59.6254 41.3883 59.5712 41.3043 59.49 41.242C59.4114 41.177 59.3125 41.1444 59.1933 41.1444ZM60.4252 42.9082C60.3954 42.9082 60.3846 42.8933 60.3927 42.8635L61.3477 40.0959C61.3559 40.0743 61.3721 40.0634 61.3965 40.0634H61.7013C61.7311 40.0634 61.7419 40.0783 61.7338 40.1081L60.7788 42.8757C60.7707 42.8974 60.7544 42.9082 60.73 42.9082H60.4252ZM62.7162 40.8071C62.8814 40.8071 63.025 40.8369 63.147 40.8965C63.2716 40.9534 63.3664 41.0347 63.4314 41.1404C63.4992 41.2433 63.533 41.3612 63.533 41.4939V42.8676C63.533 42.8947 63.5195 42.9082 63.4924 42.9082H63.1835C63.1564 42.9082 63.1429 42.8947 63.1429 42.8676V42.7213C63.1429 42.7077 63.1361 42.705 63.1226 42.7131C63.0521 42.7863 62.9654 42.8432 62.8625 42.8838C62.7622 42.9217 62.6498 42.9407 62.5252 42.9407C62.3247 42.9407 62.1581 42.8906 62.0253 42.7903C61.8953 42.6874 61.8302 42.533 61.8302 42.3271C61.8302 42.1157 61.9034 41.9505 62.0497 41.8313C62.1987 41.7093 62.406 41.6484 62.6715 41.6484H63.1266C63.1375 41.6484 63.1429 41.643 63.1429 41.6321V41.5224C63.1429 41.4032 63.1077 41.3111 63.0372 41.246C62.9695 41.1783 62.8652 41.1444 62.7243 41.1444C62.6105 41.1444 62.517 41.1675 62.4439 41.2135C62.3735 41.2569 62.3301 41.3165 62.3138 41.3923C62.3057 41.4194 62.2895 41.4316 62.2651 41.4289L61.9359 41.3842C61.9088 41.3788 61.8966 41.368 61.8993 41.3517C61.921 41.1919 62.0063 41.0618 62.1554 40.9616C62.3044 40.8586 62.4913 40.8071 62.7162 40.8071ZM62.6105 42.6115C62.7541 42.6115 62.8787 42.5736 62.9844 42.4977C63.0901 42.4219 63.1429 42.3257 63.1429 42.2092V41.9694C63.1429 41.9586 63.1375 41.9532 63.1266 41.9532H62.7446C62.5848 41.9532 62.4574 41.9843 62.3626 42.0466C62.2678 42.109 62.2204 42.1957 62.2204 42.3067C62.2204 42.407 62.2556 42.4828 62.326 42.5343C62.3992 42.5858 62.494 42.6115 62.6105 42.6115ZM64.966 40.8193C65.0527 40.8193 65.1313 40.8369 65.2017 40.8722C65.2207 40.8803 65.2274 40.8965 65.222 40.9209L65.157 41.2257C65.1543 41.2501 65.138 41.2582 65.1082 41.2501C65.0622 41.2311 65.008 41.2217 64.9457 41.2217L64.8888 41.2257C64.7614 41.2311 64.6558 41.2758 64.5718 41.3598C64.4905 41.4411 64.4499 41.5481 64.4499 41.6809V42.8676C64.4499 42.8947 64.4363 42.9082 64.4092 42.9082H64.1004C64.0733 42.9082 64.0597 42.8947 64.0597 42.8676V40.8803C64.0597 40.8532 64.0733 40.8396 64.1004 40.8396H64.4092C64.4363 40.8396 64.4499 40.8532 64.4499 40.8803V41.0957C64.4499 41.1038 64.4512 41.1092 64.4539 41.1119C64.4594 41.1119 64.4634 41.1092 64.4661 41.1038C64.588 40.9142 64.7547 40.8193 64.966 40.8193ZM65.8036 40.5145C65.7277 40.5145 65.6654 40.4901 65.6166 40.4414C65.5678 40.3926 65.5435 40.3303 65.5435 40.2544C65.5435 40.1786 65.5678 40.1163 65.6166 40.0675C65.6654 40.0187 65.7277 39.9943 65.8036 39.9943C65.8794 39.9943 65.9417 40.0187 65.9905 40.0675C66.0393 40.1163 66.0637 40.1786 66.0637 40.2544C66.0637 40.3303 66.0393 40.3926 65.9905 40.4414C65.9417 40.4901 65.8794 40.5145 65.8036 40.5145ZM65.641 42.9041C65.6139 42.9041 65.6004 42.8906 65.6004 42.8635V40.8803C65.6004 40.8532 65.6139 40.8396 65.641 40.8396H65.9499C65.977 40.8396 65.9905 40.8532 65.9905 40.8803V42.8635C65.9905 42.8906 65.977 42.9041 65.9499 42.9041H65.641ZM66.4818 42.9082C66.4547 42.9082 66.4411 42.8947 66.4411 42.8676V42.5831C66.4411 42.5641 66.4465 42.5479 66.4574 42.5343L67.5343 41.2176C67.5397 41.2122 67.5411 41.2081 67.5384 41.2054C67.5357 41.2 67.5316 41.1973 67.5262 41.1973H66.5021C66.475 41.1973 66.4614 41.1837 66.4614 41.1566V40.8803C66.4614 40.8532 66.475 40.8396 66.5021 40.8396H67.9692C67.9963 40.8396 68.0098 40.8532 68.0098 40.8803V41.1688C68.0098 41.1878 68.0044 41.204 67.9936 41.2176L66.9004 42.5343C66.8949 42.5397 66.8936 42.5452 66.8963 42.5506C66.899 42.5533 66.9031 42.5546 66.9085 42.5546H67.9732C68.0003 42.5546 68.0139 42.5682 68.0139 42.5953V42.8676C68.0139 42.8947 68.0003 42.9082 67.9732 42.9082H66.4818ZM69.2825 42.9407C69.082 42.9407 68.9073 42.8906 68.7583 42.7903C68.6093 42.6874 68.505 42.5452 68.4454 42.3636C68.3966 42.2173 68.3722 42.0521 68.3722 41.8678C68.3722 41.6755 68.3952 41.5129 68.4413 41.3802C68.5009 41.2013 68.6052 41.0618 68.7542 40.9616C68.9032 40.8586 69.0807 40.8071 69.2866 40.8071C69.4817 40.8071 69.651 40.8586 69.7946 40.9616C69.9409 41.0618 70.0452 41.2 70.1075 41.3761C70.1563 41.5143 70.1807 41.6768 70.1807 41.8638C70.1807 42.0534 70.1563 42.22 70.1075 42.3636C70.0479 42.5452 69.945 42.6874 69.7987 42.7903C69.6524 42.8906 69.4803 42.9407 69.2825 42.9407ZM69.2825 42.6034C69.3909 42.6034 69.4857 42.5736 69.567 42.514C69.6483 42.4517 69.7065 42.365 69.7418 42.2539C69.7716 42.151 69.7865 42.0236 69.7865 41.8719C69.7865 41.7202 69.7729 41.5942 69.7458 41.4939C69.7106 41.3829 69.6524 41.2975 69.5711 41.2379C69.4898 41.1756 69.3909 41.1444 69.2744 41.1444C69.1633 41.1444 69.0671 41.1756 68.9859 41.2379C68.9046 41.2975 68.8463 41.3829 68.8111 41.4939C68.7813 41.5888 68.7664 41.7148 68.7664 41.8719C68.7664 42.029 68.7813 42.1564 68.8111 42.2539C68.8436 42.365 68.9005 42.4517 68.9818 42.514C69.0658 42.5736 69.166 42.6034 69.2825 42.6034ZM71.614 40.8112C71.8361 40.8112 72.0122 40.8762 72.1423 41.0063C72.2723 41.1336 72.3374 41.307 72.3374 41.5265V42.8676C72.3374 42.8947 72.3238 42.9082 72.2967 42.9082H71.9879C71.9608 42.9082 71.9472 42.8947 71.9472 42.8676V41.6037C71.9472 41.4682 71.9079 41.3585 71.8294 41.2745C71.7508 41.1905 71.6465 41.1485 71.5164 41.1485C71.3891 41.1485 71.2848 41.1905 71.2035 41.2745C71.1222 41.3585 71.0816 41.4669 71.0816 41.5996V42.8676C71.0816 42.8947 71.0681 42.9082 71.041 42.9082H70.7321C70.705 42.9082 70.6915 42.8947 70.6915 42.8676V40.8803C70.6915 40.8532 70.705 40.8396 70.7321 40.8396H71.041C71.0681 40.8396 71.0816 40.8532 71.0816 40.8803V41.0266C71.0816 41.032 71.083 41.0361 71.0857 41.0388C71.0911 41.0415 71.0951 41.0401 71.0979 41.0347C71.2144 40.8857 71.3864 40.8112 71.614 40.8112ZM73.65 40.8071C73.8153 40.8071 73.9589 40.8369 74.0808 40.8965C74.2054 40.9534 74.3002 41.0347 74.3652 41.1404C74.433 41.2433 74.4668 41.3612 74.4668 41.4939V42.8676C74.4668 42.8947 74.4533 42.9082 74.4262 42.9082H74.1173C74.0903 42.9082 74.0767 42.8947 74.0767 42.8676V42.7213C74.0767 42.7077 74.0699 42.705 74.0564 42.7131C73.9859 42.7863 73.8992 42.8432 73.7963 42.8838C73.696 42.9217 73.5836 42.9407 73.459 42.9407C73.2585 42.9407 73.0919 42.8906 72.9591 42.7903C72.8291 42.6874 72.764 42.533 72.764 42.3271C72.764 42.1157 72.8372 41.9505 72.9835 41.8313C73.1325 41.7093 73.3398 41.6484 73.6053 41.6484H74.0605C74.0713 41.6484 74.0767 41.643 74.0767 41.6321V41.5224C74.0767 41.4032 74.0415 41.3111 73.971 41.246C73.9033 41.1783 73.799 41.1444 73.6581 41.1444C73.5443 41.1444 73.4509 41.1675 73.3777 41.2135C73.3073 41.2569 73.2639 41.3165 73.2477 41.3923C73.2395 41.4194 73.2233 41.4316 73.1989 41.4289L72.8697 41.3842C72.8426 41.3788 72.8304 41.368 72.8331 41.3517C72.8548 41.1919 72.9402 41.0618 73.0892 40.9616C73.2382 40.8586 73.4251 40.8071 73.65 40.8071ZM73.5443 42.6115C73.6879 42.6115 73.8125 42.5736 73.9182 42.4977C74.0239 42.4219 74.0767 42.3257 74.0767 42.2092V41.9694C74.0767 41.9586 74.0713 41.9532 74.0605 41.9532H73.6784C73.5186 41.9532 73.3913 41.9843 73.2964 42.0466C73.2016 42.109 73.1542 42.1957 73.1542 42.3067C73.1542 42.407 73.1894 42.4828 73.2598 42.5343C73.333 42.5858 73.4278 42.6115 73.5443 42.6115Z" fill="#C5D2FF"/>
<path d="M46.4523 46.9437C47.064 46.4303 47.5293 43.781 47.5415 42.9082L50.6036 44.6242C49.3676 46.328 47.279 46.92 46.4523 46.9437Z" fill="#3F2687"/>
<path d="M55.7739 3.03906L82.6909 3.03906C82.6909 6.02719 80.2685 8.44955 77.2804 8.44955L61.1844 8.44955C58.1963 8.44955 55.7739 6.02719 55.7739 3.03906Z" fill="#D6D6F2"/>
</g>
<rect x="40.4462" y="1.24067" width="56.8603" height="103.464" rx="8.64974" stroke="#1C0D32" stroke-width="1.38368"/>
<defs>
<clipPath id="clip0_176_20279">
<rect x="42.2451" y="3.03906" width="53.2618" height="99.8659" rx="7.26568" fill="white"/>
</clipPath>
</defs>
</svg>
