<svg width="82" height="96" viewBox="0 0 82 96" fill="none" xmlns="http://www.w3.org/2000/svg">
<path d="M79.8633 8.35764L54.9146 5.25201L41.5148 3.32945L22.4147 0.297747L20.4898 0.00195312V0.149862L17.2324 14.495L15.5297 14.4211L12.9386 12.1288L9.6812 14.8647L9.60714 26.6218L8.42263 29.1359V29.3578V29.4317L8.27455 31.2803L10.8657 38.2311L13.1607 41.3367L9.01487 43.7769L7.38618 46.8086L4.72103 53.3157L3.38846 53.6115L3.31442 59.0094L5.60939 60.7101L4.42488 63.9636L1.75975 64.1115L0.205078 66.9953L5.53537 70.3228L15.6037 75.9426L46.697 92.4321L73.0523 95.6857H73.3484L75.4213 73.8721L75.9395 68.4742L81.4919 11.2415L81.788 8.57948L79.8633 8.35764Z" fill="#D6D6F2"/>
</svg>
