<svg width="114" height="97" viewBox="0 0 114 97" fill="none" xmlns="http://www.w3.org/2000/svg">
<path d="M88.7064 95.5815H88.5586L88.6325 95.6556L88.7064 95.5815ZM88.0415 95.5074V95.5815H88.1154L88.0415 95.5074ZM77.3298 96.6188H77.2559V96.6929L77.3298 96.6188ZM98.3101 91.9509H98.2362L98.3101 92.0991V91.9509ZM100.305 91.4323V91.2841L100.157 91.5064L100.305 91.4323ZM99.5659 91.2841L99.2705 90.9877L99.1965 91.0618L99.5659 91.2841ZM99.3443 91.8768L98.4578 90.7654L98.975 91.7286L99.3443 91.8768ZM106.362 87.5054V87.8017L106.51 87.6535L106.362 87.5054ZM107.397 86.7644L107.618 86.3939L107.323 86.6904L107.397 86.7644ZM107.618 86.0235H107.544V86.0976L107.618 86.0235ZM106.953 84.6898L106.879 84.6157V84.7639L106.953 84.6898ZM107.47 82.9116L107.323 82.9857L107.544 83.0598L107.47 82.9116ZM107.766 82.9116L107.618 82.7634L107.692 82.9857L107.766 82.9116ZM107.249 82.7634L107.175 82.6893V82.8375L107.249 82.7634ZM109.982 82.2448V82.1706L109.834 82.467L109.982 82.2448ZM106.879 82.5411H106.732L106.879 82.6152V82.5411ZM108.431 81.652H108.209L108.135 81.7262L108.431 81.652ZM102.816 81.5779V81.4297L102.742 81.5779H102.816ZM103.481 81.3557H103.26L103.481 81.8002V81.3557ZM101.708 81.4298V80.9852L101.339 81.0593L101.708 81.4298ZM100.674 80.6889L101.043 81.0593V80.9111L100.674 80.6889ZM111.534 81.1334L110.204 81.7262L110.647 81.8003L111.534 81.1334ZM101.191 80.4666H100.748V80.6147L101.191 80.4666ZM112.863 76.7619L112.937 76.3914L113.011 75.4283L112.863 76.7619ZM112.937 72.6127L112.642 71.8718L112.494 72.1682L112.937 72.6127ZM95.8723 74.4651L95.7245 74.6873L96.0939 74.7614L95.8723 74.4651ZM94.4686 73.7982L93.8038 74.0205L94.3209 74.0946L94.4686 73.7982ZM92.9912 73.9464V73.7241L92.9173 73.7982L92.9912 73.9464ZM91.4398 73.8723L90.9966 74.1686L91.5875 74.465L91.4398 73.8723ZM93.5083 73.9464L93.4344 73.7241L93.065 73.65L93.5083 73.9464ZM83.8308 66.6853L83.3875 66.9076L84.274 67.204L83.8308 66.6853ZM82.0578 64.3144L81.4668 63.4253L81.6884 64.0921L82.0578 64.3144ZM84.3478 65.7962L83.3137 63.4253L82.5749 63.203L84.3478 65.7962ZM81.3929 62.8325L81.1713 62.2398L81.0235 61.8693L81.3929 62.8325ZM75.2613 54.6082L73.9316 53.645L74.4487 54.1637L75.2613 54.6082ZM108.505 49.644L103.112 40.6047H102.816L108.505 49.644ZM71.1982 35.196L70.9766 35.1218L71.1982 35.27V35.196ZM70.755 34.6773L70.6811 34.7514L70.755 34.8256V34.6773ZM70.2379 33.9364V33.8623L70.164 33.9364H70.2379ZM70.5334 33.64L70.755 33.7882V33.64H70.5334ZM70.9766 33.3437L70.6811 33.4178H70.755L70.9766 33.3437ZM70.4595 33.2695L70.2379 33.0472L70.3118 33.1214L70.4595 33.2695ZM69.9424 32.4545H69.7946L70.0163 32.5286L69.9424 32.4545ZM70.4595 31.5654H70.164L70.0901 31.6395L70.4595 31.5654ZM70.755 31.7136L70.3856 31.3431L70.5334 31.4172L70.755 31.7136ZM67.9478 28.5276L67.8 28.4535V28.5276H67.9478ZM64.7712 28.5276L64.5496 28.2312L64.6235 28.6017L64.7712 28.5276ZM37.881 26.0825L40.0972 24.3784L37.6593 26.0084L37.881 26.0825ZM42.3134 22.5261L42.535 22.3038L41.6485 22.6743L42.3134 22.5261ZM14.2412 17.5619L6.1889 20.1551L10.6214 18.8955L14.2412 17.5619ZM34.2611 4.96614L32.1188 5.33661L0.205078 10.5231L3.52943 18.1546L3.75106 18.2287L2.93845 21.2666L5.30243 20.2293L7.88799 17.9324L12.3204 17.7842L17.4178 15.9319L20.8899 16.4505L20.0773 17.7101L26.4304 19.8588L31.8971 22.5261L33.153 25.4898L37.2161 24.6007L46.8197 16.7469L50.3657 16.8951L64.8451 27.8608L67.8 27.268L70.9027 31.4172L71.4937 38.0115L70.5334 42.1607L70.9766 44.2353L73.5622 49.4217L72.3802 45.3466L75.7046 45.2725L76.0001 48.2362L74.2271 52.83L80.3587 61.2766L82.6488 61.3507L80.7281 58.7574L83.092 59.0538L84.4956 58.1647L83.9046 62.9066L87.0812 65.4258L89.2236 71.205L92.1047 72.9832L95.7984 73.9464L100.896 80.4666L103.555 81.8743L100.009 82.0966L101.634 83.9489L107.471 82.0225L110.352 80.3925L113.011 71.0568L111.681 56.5347L111.386 55.0528L104.294 43.198L98.2363 34.6032L94.838 27.5644L97.7191 30.0095L98.3101 29.5649L99.566 35.7146L102.816 40.3825L99.6398 34.1587L99.7876 31.195L90.2578 19.5624L87.9677 15.9319L84.9389 9.78221L82.8704 4.59572L81.2452 2.74341L80.8758 0.372444L80.8019 0.298318L75.7046 0.00195312L73.7099 1.5579L72.6018 7.26302L71.5676 4.5957L36.6989 8.96715L34.1872 5.04024L34.2611 4.96614Z" fill="#D6D6F2"/>
</svg>
