<svg width="68" height="71" viewBox="0 0 68 71" fill="none" xmlns="http://www.w3.org/2000/svg">
<path d="M64.8141 50.7727L64.7404 48.557L64.2247 50.4772L64.8141 50.7727ZM65.6245 47.3754L65.3298 45.6767L65.1088 46.7107L65.6245 47.3754ZM31.1467 0.847412L30.189 1.06898L27.3895 1.6598L17.0756 3.80156L16.1179 4.02312L15.0865 4.17083L9.34023 5.27865L7.79314 5.57406L1.53114 6.75572L0.205078 6.90343L0.278782 7.05113L10.1506 37.1836L15.6022 46.9323L14.2762 48.4093L13.4658 54.1699L15.0865 57.1241L15.2339 62.5154L17.223 66.282V66.3559L17.1493 66.4297L19.6541 70.344L54.4266 65.9866L55.458 68.6454L56.563 62.9586L58.5521 61.4077L63.6354 61.7031L63.1934 53.7269L64.1511 52.0282L63.6354 48.8525L64.6668 45.8245L66.2138 44.1259L65.1088 43.0919L67.6873 39.9162H67.6136L63.1934 35.7804L57.1524 27.1395L53.8372 25.5885L39.6188 13.6242L36.1563 9.19296L29.4522 6.38652L29.0839 4.90942L31.1467 0.847412Z" fill="#D6D6F2"/>
</svg>
