<svg width="97" height="97" viewBox="0 0 97 97" fill="none" xmlns="http://www.w3.org/2000/svg">
<path d="M50.1583 45.2482L49.7844 44.6562L49.7096 45.3962L50.1583 45.2482ZM51.3548 43.9162L50.4574 42.7322L50.3079 43.2502L51.3548 43.9162ZM52.1026 38.5881L51.3548 37.9221V38.0701L52.1026 38.5881ZM50.2331 96.5311L59.5059 95.0511L62.1231 94.5331L73.5645 92.535L73.7889 93.4971L74.5367 93.2751L79.4722 92.2391L84.1834 91.129L88.9693 89.945L88.8945 89.723L91.3622 84.9129L91.1379 80.9168L93.9048 74.0347L96.0734 75.2927L96.896 73.7387L96.6716 67.8186L94.6526 64.1185L91.6614 56.2744L89.044 53.3883L87.698 53.0183L82.8373 56.3484L83.3607 57.0144L80.8182 61.7505L78.3505 61.3065L77.6027 56.3484L78.6496 55.9784L80.8182 51.0203L81.0425 42.2882L77.6775 34.888L70.1994 33.63L69.4516 32.52L62.497 30.5219L59.3563 34.37L59.6554 37.7001L57.2624 40.6601L57.7859 45.2482L55.4677 46.8762V41.1041L53.3739 45.4702L50.9061 49.3183L49.2609 50.5763L50.0835 54.6464L49.0366 58.8645L49.6348 64.1185L48.887 66.7086L54.2712 76.9208L54.9442 80.8428L54.2712 88.095L50.6818 96.2351L50.2331 96.5311ZM66.2361 29.8559L64.2918 30.0039L65.4883 30.8919L66.2361 29.8559ZM54.8695 31.78H54.2712L54.9442 32.076L54.8695 31.78ZM67.956 22.3818L67.2082 21.1978L66.9091 21.2718L67.956 22.3818ZM0.205078 27.7839L2.59805 29.1159L14.862 32.816L20.5453 34.296L26.079 34.666L30.1172 37.9221V42.9542L33.7066 46.5062V46.4322L36.6231 38.07L40.1377 35.628L42.8299 32.668L43.2785 35.332L46.0454 31.1139L52.7009 28.5979L53.2243 27.5619L59.9545 28.3759L62.5718 29.7079L63.8431 26.4518L65.0396 27.1919L70.2742 26.3778L69.0029 24.3058L66.6848 22.9738L67.1334 18.1637L62.5718 20.6797L58.3841 20.1617L57.0381 16.9797L57.4868 15.9437L51.8035 18.6077L48.1393 18.8297L41.5586 22.8258L40.8108 24.3058L36.7727 23.3438L34.2301 24.4538L29.1451 20.0877L17.8532 16.6837L17.6289 15.3516L10.3752 22.2338L6.26229 23.2698L0.429426 27.6359L0.205078 27.7839ZM26.6773 10.9856L17.928 15.2777L20.8444 18.0897L21.9661 15.2777L24.9573 11.6516L26.6773 10.9856ZM16.8811 0.847412L10.8986 4.91748L10.5995 6.91552L15.3107 3.51146L16.8811 0.847412Z" fill="#D6D6F2"/>
</svg>
