<svg width="107" height="51" viewBox="0 0 107 51" fill="none" xmlns="http://www.w3.org/2000/svg">
<path d="M82.7674 47.4677L81.9558 48.2779L82.1033 48.4253L82.7674 47.4677ZM83.3576 43.1953L82.9887 43.7846L83.1363 44.3739L83.3576 43.1953ZM87.7845 36.3449L86.6778 37.0815L86.0876 37.9654L87.7845 36.3449ZM97.3025 31.7043L96.8598 31.4096L95.9006 31.3359L97.3025 31.7043ZM95.3103 31.2623H94.6463L93.5396 31.8516L95.3103 31.2623ZM97.5976 32.0726L99.7373 26.769L98.2616 28.9788L97.5976 32.0726ZM100.77 25.0748L101.729 23.6753H101.213L100.77 25.0748ZM106.968 19.3293L105.345 11.1529L106.747 15.4253L106.968 19.3293ZM97.9665 0.693115L97.819 0.766786L97.5976 0.84048H97.6714L101.729 7.69094L104.902 10.8583L97.9665 0.693115ZM96.6384 1.13507L96.0482 1.28239L96.1958 1.35608H97.45L97.3025 0.914128L97.0811 0.987799H96.8598V1.13512L96.7122 1.20881L96.6384 1.13507ZM28.3899 17.9297L28.021 19.0346L28.0948 22.202L27.2831 22.1284L25.3648 26.0324L23.2251 26.2533L19.2409 30.1574L17.4701 29.4944L15.1829 32.8828L9.13272 38.3337L6.18145 39.0703L3.08258 41.9431L2.935 43.8583L0.205078 45.3315L0.278894 48.5726V49.3092L1.23803 49.0882L11.5676 46.952L14.3713 46.3627L15.3304 46.1418H15.5518L40.0475 38.4074L44.1793 40.5435L52.5167 40.8382L58.6406 39.6596L75.0941 50.0458L75.3892 49.8248L82.9888 46.731L83.0626 42.6797L85.7925 37.7444L88.7438 34.9453L94.8677 30.894L95.6793 29.4208L97.3025 30.1574L98.0404 25.2958L97.155 26.99L94.0561 28.0212L91.1049 28.0949L94.7202 25.4431L93.6134 24.2645L94.8677 21.6128L87.9322 20.5079L87.6371 20.1396L93.5396 19.0346L95.458 19.9922L97.8928 19.7712L99.8849 18.298L101.361 15.4253L102.689 15.057L102.467 11.0056L100.77 9.38507L99.0733 10.9319L99.4422 14.836L98.1879 10.048L97.2288 9.82705L89.9243 12.8471L93.1708 9.67973L93.3183 8.42749L96.7123 7.61722L97.6715 5.11276L99.9587 6.43865L97.5239 2.82927L95.8269 1.35606L66.314 9.75338L47.4995 14.5413L28.4637 18.077L28.3899 17.9297Z" fill="#D6D6F2"/>
</svg>
