<svg width="52" height="62" viewBox="0 0 52 62" fill="none" xmlns="http://www.w3.org/2000/svg">
<path d="M51.2058 19.6627L49.3738 11.5651L49.0074 9.91559L46.9557 0.693359L44.3177 2.41784L38.6754 6.84151L35.0116 11.4151L32.1538 11.865L26.8778 14.9391L23.9468 13.1396L15.0803 12.0899L10.3906 13.2896L5.77414 14.4142L0.937854 15.4639L0.205078 15.6888L0.424916 16.8885L2.40341 28.2101L6.80002 54.7521L6.94655 56.0267L7.53279 55.4269L11.1233 54.977L13.0285 55.9517L16.7656 59.2507L17.7915 58.8009L21.7485 60.6003L23.6537 59.1008L25.852 60.0005L27.6106 59.5506L30.3952 56.7765L31.7874 59.1758L34.865 60.9752L35.0116 61.1252L38.1625 59.5506L39.2616 57.0764L38.3823 54.5272L40.8737 50.6283L42.7056 50.3284L42.4858 47.0294L45.4902 42.8307L46.0031 43.4305L48.7143 41.3311L51.0592 37.7322L51.4256 21.3122L51.5721 21.2372L51.2058 19.6627Z" fill="#D6D6F2"/>
</svg>
