<svg width="70" height="53" viewBox="0 0 70 53" fill="none" xmlns="http://www.w3.org/2000/svg">
<path d="M67.103 7.91283L62.2768 5.80702L61.4601 3.92682L57.3022 0.692871L34.5821 7.61201L12.0106 13.8543L8.07542 12.8766L7.55568 10.6203L6.2935 11.598L4.28877 13.027L0.650583 16.7874L0.205078 17.1634L2.28404 26.414L2.65531 28.0686L4.51152 36.191L4.88274 37.7704L8.14971 52.0599L18.693 49.4276L20.1779 49.0516L21.5144 48.6756L26.786 47.2466L55.8172 39.0489L61.0889 37.3944L62.3511 37.0183L62.9451 35.5142L64.2816 34.4613H66.0635L66.2863 33.7844L69.1819 30.4752L69.479 29.9488L69.7017 29.7984L66.806 22.1271L65.3953 21.9015L65.4696 16.8626L64.1331 15.208L67.2515 8.21367L67.103 7.91283Z" fill="#D6D6F2"/>
</svg>
