<svg width="98" height="91" viewBox="0 0 98 91" fill="none" xmlns="http://www.w3.org/2000/svg">
<path d="M71.7651 88.1746L69.7934 80.8164V82.1986L71.7651 88.1746ZM71.3132 75.2469L69.9167 77.8487L69.7524 78.7024L71.3132 75.2469ZM72.4223 73.3362L73.7367 71.6288L72.7919 72.1979L72.4223 73.3362ZM77.0638 69.1896L73.9831 70.775L74.8457 70.6124L77.0638 69.1896ZM77.4745 68.6204L78.3371 67.9293L78.0085 68.0106L77.4745 68.6204ZM28.7594 0.404197L28.4719 0.363525L27.0753 38.4963L18.9424 38.1304L5.92161 37.3987L0.705078 37.0328L1.73196 39.0248L1.77304 39.0655L6.20916 43.456L8.75581 46.4237L12.124 48.9036L14.5063 53.2128L15.41 57.7253L17.3405 58.9856L18.8603 60.6524L21.0373 61.4248L24.2001 63.4168L25.6377 63.9453L27.6093 61.9939L28.2254 59.9206L29.2523 57.9286L32.4562 56.6683L33.6884 57.2781L37.262 57.5627L40.5069 59.5547L42.725 59.9613L42.1088 61.0995L43.3822 61.9126L44.5733 63.3355L44.8198 64.8397L45.6002 65.856L47.4075 70.1652L49.2148 71.6694L50.6114 73.946L52.3776 75.7347L53.1581 75.9787L53.8152 80.6131L55.7458 81.6701L55.8279 83.1336L56.3208 83.0117L59.689 87.077L61.3731 87.4429L63.509 88.7031H66.795L69.1774 90.0041L72.0115 89.3942L70.7382 88.2153L69.5881 84.8004L69.1363 81.8327L68.4791 80.857L68.7666 78.865L67.904 78.7837L66.7539 76.9137L68.0683 78.2959L69.5881 77.7674L70.4096 75.6128L68.7666 73.4175L71.2311 73.7021L72.3812 71.954L72.2169 71.3442L73.2438 70.0026L72.9973 71.1816L74.1474 70.2872L73.6956 68.7017L75.1743 69.4741L77.0638 68.4171L75.2154 66.5064L76.3655 66.9536L78.5014 67.0756L81.2945 66.4658L84.4162 64.3925L86.3057 62.8476L86.5932 61.7093L87.7433 60.5304L87.1272 58.579L87.2504 57.3594L89.3042 56.4651L89.1399 58.6197H90.3721L89.0166 59.758L94.4796 56.9123L95.3833 56.8716L95.9583 54.2698H96.1226L96.7388 52.7656L97.0263 48.1311L97.396 46.2611L96.328 42.9275L95.0136 40.6509L94.9725 39.5533L93.617 37.6832L92.7955 29.8372L92.7544 28.8615L92.6723 27.8451L92.4258 24.2677L89.9613 24.349L89.3452 23.6985L89.222 23.6578H89.1809L87.579 23.3733L85.7306 22.1943L83.6768 21.3406L79.8158 22.4383L78.7889 22.1943L77.5155 22.6822L75.9547 23.9424L71.765 21.9911L70.4506 23.7798L68.5201 23.0887L66.4663 21.7878L65.3573 22.7228L64.2893 22.7635V21.9911L61.4141 20.6495L60.264 21.178L59.6889 20.5276L56.5262 20.2023L54.1027 18.0071L53.7331 18.7388L51.9668 18.6575L50.3238 17.1127L49.5844 14.6735L49.4612 0.770063L38.946 0.648099L29.0058 0.404184L28.7594 0.404197Z" fill="#D6D6F2"/>
</svg>
