<svg width="64" height="73" viewBox="0 0 64 73" fill="none" xmlns="http://www.w3.org/2000/svg">
<path d="M63.6585 23.2037L61.8075 25.5225L60.6968 28.8886L61.2151 30.7587L63.6585 23.2037ZM21.1588 5.62513L22.2694 4.05428L21.4549 4.80231L21.1588 5.62513ZM22.8617 3.15665L22.4915 2.70784L21.6771 3.23146L22.8617 3.15665ZM6.72072 7.34558L5.01779 9.29045L5.83224 18.2667L1.0936 22.6052L0.205078 26.7942L2.79653 29.1878L2.05611 39.5106L4.79566 41.605L6.57266 41.7546L12.1998 45.1955L15.7537 48.9356L20.2703 51.2545L21.3069 57.0143V57.3883L23.4541 60.0064L22.8617 62.0261L23.6021 66.4394L25.8234 69.5063L29.8956 71.6755L29.8216 72.0496L45.9626 70.1795L51.9599 69.4315L61.9555 68.0102L61.6594 66.8882V63.3725L59.6602 59.6324L59.1419 54.9198L60.1045 49.6837L59.5862 45.6443L61.3632 40.6326L60.6968 39.8098L60.8449 35.172L61.8074 31.6563L60.6968 30.4595L58.5496 31.2075L57.3649 34.3492L54.5514 35.9949L55.4399 32.0303L57.9573 28.6642L58.1054 27.1682L58.1794 27.0934L54.6255 23.5028V18.4163L50.6272 15.125L45.1481 14.751L39.521 13.2549L27.3783 9.51482L25.0089 8.16838L24.7868 8.39278L21.0107 7.86917L19.752 8.61719L20.2703 3.15662L14.1989 6.29832L6.79475 7.49516L6.72072 7.34558ZM21.2328 3.38106L21.0847 2.85745L20.5665 3.08185L21.2328 3.38106ZM18.5673 2.85745L18.7895 2.40863L18.6414 2.25903L18.5673 2.85745ZM23.9724 1.58581L23.7502 0.538574L23.5281 1.81022L23.9724 1.58581Z" fill="#D6D6F2"/>
</svg>
