<svg width="81" height="49" viewBox="0 0 81 49" fill="none" xmlns="http://www.w3.org/2000/svg">
<g clip-path="url(#clip0_108_12760)">
<path d="M77.973 16.5609C78.2142 16.5609 78.4112 16.3639 78.4112 16.1227V11.7404C78.4112 11.4991 78.2182 11.3021 77.977 11.2981H62.8036C62.687 11.2981 62.5704 11.3423 62.49 11.4268C62.4056 11.5112 62.3613 11.6238 62.3613 11.7404V16.1187C62.3613 16.2353 62.4056 16.3479 62.49 16.4323C62.5704 16.5167 62.687 16.565 62.8036 16.5609H77.973Z" fill="#FF2846"/>
<path d="M77.973 6.38089C78.2142 6.38089 78.4112 6.18389 78.4112 5.94266V1.56433C78.4152 1.44773 78.371 1.33114 78.2825 1.25073C78.2021 1.1663 78.0896 1.12207 77.973 1.12207H62.8036C62.5624 1.12207 62.3653 1.31505 62.3613 1.55629C62.3613 1.55629 62.3613 1.56031 62.3613 1.56433V5.93864C62.3613 6.05523 62.4056 6.17183 62.49 6.25224C62.5704 6.34069 62.687 6.38492 62.8036 6.38089H77.973Z" fill="#FF2846"/>
<path d="M7.42105 26.5035L1.09277 1.60453V1.45577C1.09277 1.23464 1.22947 1.12609 1.49482 1.12609H7.16374C7.40497 1.10599 7.61806 1.28691 7.63816 1.52814L10.8023 17.2363C10.8264 17.3086 10.8626 17.3448 10.9149 17.3448C10.9671 17.3448 10.9993 17.3086 11.0234 17.2363L14.0991 1.53216C14.0991 1.31103 14.272 1.12609 14.4931 1.12207C14.5213 1.12207 14.5454 1.12207 14.5735 1.13011H20.1299C20.4716 1.13011 20.6083 1.29093 20.5319 1.60855L14.0991 26.5035C14.0388 26.7367 13.8217 26.8935 13.5805 26.8734H7.93568C7.69445 26.8975 7.47734 26.7367 7.42105 26.5035Z" fill="#FF2846"/>
<path d="M39.0266 4.91725C38.2869 3.63873 37.1933 2.59742 35.8786 1.92197C34.4312 1.18622 32.823 0.816335 31.1987 0.852519C29.5784 0.820355 27.9743 1.18622 26.5269 1.92197C25.2122 2.59742 24.1226 3.63873 23.3828 4.91725C22.6149 6.2802 22.2249 7.82408 22.2611 9.38806V18.2332C22.2249 19.8132 22.6109 21.3772 23.3828 22.7562C23.6884 23.287 24.0543 23.7815 24.4764 24.2277C25.0795 23.5925 25.7831 23.0618 26.5631 22.6597C27.8737 21.9923 29.8277 21.6466 31.2992 21.6144C31.2148 21.6104 30.861 21.6064 30.5876 21.5461C30.0609 21.4335 29.5985 21.1641 29.1885 20.7621C29.1764 20.75 29.1643 20.7379 29.1482 20.7219C28.6135 20.0906 28.3401 19.2825 28.3763 18.4583L28.3643 9.23528C28.324 8.39901 28.5974 7.57883 29.1362 6.93555C29.6629 6.35659 30.4187 6.03897 31.1987 6.07114C31.9747 6.04702 32.7225 6.37268 33.2371 6.95565C33.7839 7.58687 34.0734 8.39901 34.0412 9.23528V18.4583C34.0774 19.2825 33.804 20.0906 33.2693 20.7219C32.8471 21.1521 32.429 21.4335 31.8701 21.5461C31.5083 21.6104 31.3957 21.6024 31.2992 21.6104C32.7868 21.6385 34.58 21.9803 35.9027 22.6557C36.6666 23.0538 37.3581 23.5644 37.9532 24.1875C38.3633 23.7533 38.7251 23.2789 39.0266 22.7603C39.7946 21.3772 40.1845 19.8173 40.1484 18.2372V9.3961C40.1845 7.8281 39.7946 6.28422 39.0266 4.91725Z" fill="#FF2846"/>
<path d="M39.0063 25.639C38.7008 25.1123 38.3711 24.6339 37.953 24.1917C37.3499 24.8309 36.6061 25.3576 35.8261 25.7637C34.5677 26.3949 33.1927 26.7165 31.7895 26.7608C31.8338 26.7969 31.1905 26.7608 31.2226 26.801C32.4409 26.801 32.9474 27.207 33.3053 27.6131C33.8521 28.2443 34.0852 29.1288 34.0531 29.9611V39.1841C34.0893 40.0083 33.8159 40.8165 33.2811 41.4477C32.1634 42.5855 30.3381 42.6016 29.2003 41.4879C29.1883 41.4758 29.1762 41.4638 29.1601 41.4477C28.6254 40.8165 28.352 40.0083 28.3882 39.1841V29.9611C28.348 29.1248 28.6415 28.2323 29.1802 27.589C29.5461 27.1829 30.1049 26.801 31.1905 26.801C31.2186 26.7648 30.5954 26.7929 30.6316 26.7648C29.2084 26.7246 27.8092 26.4029 26.5347 25.7637C25.7708 25.3656 25.0793 24.843 24.4843 24.2198C24.0782 24.65 23.7204 25.1284 23.4229 25.639C22.6549 27.002 22.269 28.5459 22.3011 30.1098V38.955C22.265 40.535 22.6549 42.095 23.4229 43.478C24.1586 44.7686 25.2522 45.8139 26.5709 46.4934C28.0143 47.2292 29.6185 47.595 31.2387 47.5629C32.859 47.595 34.4632 47.2292 35.9106 46.4934C37.2293 45.8139 38.3229 44.7686 39.0546 43.478C39.8225 42.095 40.2125 40.535 40.1763 38.955V30.1098C40.1964 28.5418 39.7903 26.998 39.0063 25.639Z" fill="#1A42CF"/>
<path d="M26.527 25.7718C27.9623 26.4915 29.5545 26.8493 31.1627 26.8091H31.2793C32.8714 26.8413 34.4434 26.4875 35.8667 25.7718C36.6466 25.3657 37.3502 24.831 37.9533 24.1918C37.3583 23.5686 36.6667 23.0499 35.9028 22.6519C34.4555 21.9161 32.8473 21.5744 31.227 21.6066C29.6067 21.5744 28.0066 21.9161 26.5632 22.6519C25.7832 23.058 25.0796 23.5887 24.4766 24.2279C25.0716 24.8511 25.7631 25.3738 26.527 25.7718Z" fill="#1C0D32"/>
<path d="M53.8538 21.7513V6.56584C53.8377 6.47739 53.898 6.39698 53.9865 6.38089C54.0026 6.38089 54.0227 6.38089 54.0388 6.38089H59.5549C59.6715 6.38089 59.7841 6.33667 59.8645 6.25224C59.9529 6.17183 60.0012 6.05925 59.9971 5.93864V1.56433C60.0012 1.44371 59.9529 1.33114 59.8645 1.25073C59.7841 1.1663 59.6715 1.12207 59.5549 1.12207H42.2667C42.1501 1.12207 42.0375 1.1663 41.9531 1.25073C41.8687 1.33114 41.8204 1.44773 41.8245 1.56433V5.93864C41.8245 6.05523 41.8687 6.17183 41.9531 6.25224C42.0375 6.33667 42.1501 6.38089 42.2667 6.38089H47.5657C47.6542 6.36883 47.7346 6.42914 47.7467 6.51759C47.7467 6.53367 47.7467 6.54976 47.7467 6.56584V21.6588H52.5431C52.9814 21.6588 53.4196 21.691 53.8538 21.7513Z" fill="#FF2846"/>
<path d="M60.415 46.8874L56.3945 36.5185C56.3463 36.3939 56.3704 36.3215 56.4709 36.2974C57.6328 35.7224 58.5897 34.8098 59.229 33.684C59.9124 32.4457 60.2542 31.0506 60.222 29.6394C60.2502 28.196 59.9245 26.7688 59.2651 25.4822C58.65 24.3082 57.7132 23.3312 56.5634 22.6678C55.7271 22.1934 54.8064 21.8798 53.8535 21.7512V26.427C53.8535 26.5436 53.8093 26.6562 53.7249 26.7406C53.6405 26.825 53.5279 26.8693 53.4113 26.8693H48.1846C48.068 26.8693 47.9555 26.825 47.871 26.7406C47.7906 26.6562 47.7464 26.5436 47.7464 26.427V21.6587H43.1268C43.0102 21.6587 42.8977 21.7029 42.8132 21.7873C42.7288 21.8678 42.6846 21.9723 42.6846 22.1009V46.9638C42.6846 47.0804 42.7288 47.1929 42.8132 47.2774C42.8977 47.3618 43.0102 47.406 43.1268 47.406H48.3535C48.5947 47.406 48.7917 47.213 48.7957 46.9718C48.7957 46.9718 48.7957 46.9678 48.7957 46.9638V37.3146C48.7797 37.2261 48.84 37.1457 48.9284 37.1296C48.9445 37.1296 48.9606 37.1296 48.9767 37.1296H50.4522C50.5246 37.1296 50.5849 37.1819 50.6331 37.2784L54.0908 47.0241C54.135 47.2492 54.34 47.406 54.5692 47.394H60.0491C60.3185 47.394 60.4512 47.2814 60.4512 47.0603C60.4512 47 60.4391 46.9437 60.415 46.8874ZM53.4434 31.718C52.9489 32.2286 52.2574 32.502 51.5498 32.4698H48.9726C48.8842 32.4819 48.8038 32.4216 48.7917 32.3331C48.7917 32.3171 48.7917 32.305 48.7917 32.2889V27.0623C48.7917 26.9256 48.8279 26.8693 48.9204 26.8693C48.9365 26.8693 48.9485 26.8693 48.9686 26.8693H51.5458C52.4423 26.8693 52.9449 27.1226 53.4434 27.6291C53.946 28.2001 54.1631 28.9479 54.1591 29.7077C54.1591 30.4475 53.938 31.1712 53.4434 31.718Z" fill="#1A42CF"/>
<path d="M53.8452 21.7512H53.8412C53.411 21.6909 52.9768 21.6587 52.5426 21.6587H47.7461V26.427C47.7461 26.5436 47.7903 26.6562 47.8707 26.7406C47.9552 26.825 48.0677 26.8693 48.1843 26.8693H53.411C53.5276 26.8693 53.6402 26.825 53.7246 26.7406C53.809 26.6562 53.8532 26.5436 53.8532 26.427V21.7512H53.8452Z" fill="#1C0D32"/>
<path d="M65.7546 22.6678C67.1819 21.9562 68.762 21.6024 70.3541 21.6386C71.9382 21.6104 73.5062 21.9562 74.9294 22.6477C76.212 23.2749 77.2895 24.2519 78.0413 25.4621C78.178 25.6872 78.2986 25.9204 78.4112 26.1576V22.0326C78.4152 21.916 78.371 21.7994 78.2825 21.719C78.2021 21.6346 78.0896 21.5903 77.973 21.5903H62.8036C62.687 21.5903 62.5704 21.6346 62.49 21.719C62.4056 21.8034 62.3613 21.916 62.3613 22.0326V26.1536C62.4538 25.9566 62.5543 25.7636 62.6669 25.5747C63.3946 24.3283 64.4681 23.3192 65.7546 22.6678Z" fill="#FF2846"/>
<path d="M73.152 30.5642C73.2324 30.6487 73.349 30.6969 73.4656 30.6929H78.6883C78.8049 30.6969 78.9215 30.6527 79.0019 30.5642C79.0863 30.4838 79.1345 30.3672 79.1305 30.2506V29.4988C79.1506 28.3288 78.9054 27.191 78.4109 26.1296L78.3988 26.3749C78.3988 26.6161 78.2219 26.8211 77.9807 26.8211H62.8073C62.6907 26.8252 62.5741 26.7809 62.4937 26.6925C62.4092 26.6121 62.369 26.4955 62.3731 26.3789V26.1216C61.8182 27.3117 61.5448 28.6103 61.5649 29.921V39.2164C61.5368 40.7401 61.9187 42.2438 62.6746 43.5706C63.3983 44.825 64.4677 45.8422 65.7583 46.4975C68.6692 47.8605 72.0343 47.8605 74.9452 46.4975C76.2317 45.8583 77.3092 44.8531 78.0329 43.6108C78.7848 42.2921 79.1627 40.7924 79.1345 39.2727V33.3706C79.1345 33.1293 78.9335 32.9323 78.6923 32.9283H70.5749C70.4583 32.9283 70.3457 32.9725 70.2613 33.057C70.1728 33.1374 70.1286 33.254 70.1326 33.3706V37.3428C70.1326 37.5841 70.3256 37.7811 70.5668 37.7851C70.5668 37.7851 70.5709 37.7851 70.5749 37.7851H72.9229C73.0113 37.769 73.0917 37.8293 73.1078 37.9178C73.1078 37.9338 73.1078 37.9499 73.1078 37.966V39.6586C73.144 40.3743 72.8827 41.0698 72.3881 41.5885C71.8815 42.079 71.1981 42.3403 70.4945 42.3081C69.7386 42.3242 69.0109 42.0227 68.4842 41.4799C67.9374 40.901 67.648 40.125 67.6801 39.3289V29.8124C67.6439 29.0284 67.9093 28.2565 68.4159 27.6574C68.8943 27.1347 69.5738 26.8292 70.2814 26.8413C70.2975 26.8413 70.3618 26.8413 70.3618 26.8413C71.2383 26.8212 71.8172 27.0945 72.3278 27.6253C72.8143 28.156 73.0716 28.8555 73.0475 29.5752V30.2707C73.0475 30.3793 73.0837 30.4838 73.1561 30.5642H73.152Z" fill="#1A42CF"/>
<path d="M62.4899 26.7124C62.5703 26.8009 62.6869 26.8451 62.8035 26.8411H77.9729C78.2141 26.8411 78.4111 26.6441 78.4111 26.4028V26.1294C78.2985 25.8922 78.1779 25.659 78.0412 25.4339C77.2894 24.2237 76.2119 23.2467 74.9293 22.6195C73.5061 21.928 71.9381 21.5621 70.354 21.5903C68.7619 21.5541 67.1818 21.928 65.7545 22.6396C64.468 23.291 63.3945 24.3001 62.6668 25.5465C62.5542 25.7354 62.4537 25.9284 62.3612 26.1254V26.3787C62.3532 26.5034 62.4014 26.624 62.4899 26.7124Z" fill="#1C0D32"/>
<path d="M16.338 47.7439C18.352 47.7439 19.9846 46.1112 19.9846 44.0973C19.9846 42.0833 18.352 40.4507 16.338 40.4507C14.324 40.4507 12.6914 42.0833 12.6914 44.0973C12.6914 46.1112 14.324 47.7439 16.338 47.7439Z" fill="#1A42CF"/>
</g>
<defs>
<clipPath id="clip0_108_12760">
<rect width="80.4102" height="48.2461" fill="white" transform="translate(0.0283203 0.176758)"/>
</clipPath>
</defs>
</svg>
